<svg viewBox="0 0 138.33 68.21" xmlns="http://www.w3.org/2000/svg"><g fill="#1d1d1b"><path d="m20.34 0a.11.11 0 0 0 -.15 0 16.2 16.2 0 0 0 -3.72 7.7.14.14 0 0 0 0 .09 12.19 12.19 0 0 1 2.09 2.28 11.13 11.13 0 0 1 1.58 3.58.1.1 0 0 0 .1.07.09.09 0 0 0 .09-.07 11.25 11.25 0 0 1 1.67-3.55 12.11 12.11 0 0 1 2-2.28.08.08 0 0 0 0-.09 16.11 16.11 0 0 0 -3.66-7.73"/><path d="m30.33 4.8a.09.09 0 0 0 -.06-.08.1.1 0 0 0 -.09 0l-1.13.73c-5 3.2-7.75 5-8.25 11.44a.09.09 0 0 0 .07.1.11.11 0 0 0 .13.01c1.83-3.32 4.67-4.72 9.14-6.63a.11.11 0 0 0 .06-.07 16.45 16.45 0 0 0 .15-5.45"/><path d="m11.48 5.45-1.12-.73a.12.12 0 0 0 -.1 0s0 0-.06.08a17 17 0 0 0 .15 5.45.11.11 0 0 0 .06.07c4.47 1.91 7.32 3.3 9.14 6.63a.11.11 0 0 0 .09.05.1.1 0 0 0 .07-.1c-.5-6.48-3.26-8.24-8.26-11.44"/><path d="m35.29 9.16a.08.08 0 0 0 -.1 0c-1.42.65-2.76 1.22-3.95 1.72-5.48 2.33-8.78 3.73-10.37 8.76a.28.28 0 0 0 0 .09.1.1 0 0 0 .07 0 11.82 11.82 0 0 0 14-8.4 11.68 11.68 0 0 0 .38-2.11.11.11 0 0 0 0-.09"/><path d="m9.28 10.87c-1.18-.5-2.52-1.07-3.93-1.72a.11.11 0 0 0 -.1 0 .12.12 0 0 0 0 .09 13.51 13.51 0 0 0 .38 2.11 11.88 11.88 0 0 0 11.37 8.7 12 12 0 0 0 2.6-.29.08.08 0 0 0 .06 0 .08.08 0 0 0 0-.08c-1.59-5-4.9-6.44-10.38-8.77"/><path d="m54.64 32.92a2.05 2.05 0 0 1 2 2 8.71 8.71 0 0 1 -3.56 6.08 15 15 0 0 1 -6.08 2.43c2-5.64 4.69-10.51 7.69-10.51m6.48 2.34c0-3.18-2.88-3.66-4.5-3.66-6.43 0-14.1 5.68-16.09 12.76a15.73 15.73 0 0 1 -2.3-.06c1-3.81 3-12.14 3.75-15h-4.14l-1.69 7-1.93 7.4c-.52-.12-1.05-.25-1.57-.41a26.82 26.82 0 0 1 -3.7-1.46c.61-2.47 3.3-12.59 4.1-15.7.52-2 .59-1.85 2.92-1.85h8v-1.2h-41.02c-2.5.11-3 1.65-3 2.48a1.74 1.74 0 0 0 1.74 1.78 1.42 1.42 0 0 0 1.47-1.45c0-.46-.44-.68-.46-1.05s.21-.56.7-.56h11.25c1.86 0 1.86.17 1.57 2l-6.63 25.48c-.27 1.34-1.13 1.83-3.13 1.83h-1.51v1.18h14.37v-1.18h-1.51c-1.94 0-2.6.17-2.27-1.68l7.16-27.63h4c2.79 0 2.57.07 2.08 2s-7.48 28.44-7.48 28.44h4.1l3.23-11.82a29.39 29.39 0 0 0 3.73 1.4c.53.15 1.06.29 1.6.41l-5.13 19.82a6.52 6.52 0 0 0 -.22 1.47c0 1.52 1 2.22 2.51 2.22a4.86 4.86 0 0 0 3-1 1.58 1.58 0 0 1 -1.35-1.51 2.69 2.69 0 0 1 .06-.69l4.25-16.26c.08-.35.42-1.67.88-3.46a16.56 16.56 0 0 0 2.31.09 12.06 12.06 0 0 0 -.24 2.4c0 4.56 2.71 7 6.61 7 4.77 0 8.68-2.55 11.56-5.72a15 15 0 0 0 1.11-1.48c1.14-2 .52-3.29-.19-3.69a1.63 1.63 0 0 0 -2.5 1.92c.21.39.64.51 1.24.56 2.1.15-3.39 5.83-7.86 5.71-.42 0-4-.11-4-4.37a10.22 10.22 0 0 1 .54-3.13c3.06-.54 14.53-3.24 14.53-9.31"/><path d="m76.94 42.51h-1.29-1.29-1.28v1 2.5s.06 1.44.1 2.14a4 4 0 0 0 -.62 0h-1.5a4 4 0 0 0 -.62 0c0-.7.08-1.42.1-2.14s0-1.56 0-2.5v-2.3c0-.94 0-1.77 0-2.5s-.06-1.46-.1-2.19c.19 0 .4 0 .62.06s.48 0 .77 0 .53 0 .76 0 .43 0 .62-.06c0 .73-.09 1.46-.1 2.18s0 1.54 0 2.47h1.06 3 1.06c0-.93 0-1.76 0-2.47s-.06-1.45-.1-2.18c.19 0 .4 0 .62.06s.48 0 .76 0 .54 0 .77 0 .43 0 .62-.06c0 .73-.08 1.46-.1 2.19s0 1.56 0 2.5v2.3 2.5s.06 1.44.1 2.14a4 4 0 0 0 -.62 0h-1.57a4 4 0 0 0 -.62 0c0-.7.08-1.42.1-2.14s0-1.56 0-2.5v-1c-.43 0-.86 0-1.28 0"/><path d="m92.69 40a4.53 4.53 0 0 0 -.75-1.47 3.23 3.23 0 0 0 -1.17-.94 3.39 3.39 0 0 0 -1.49-.34 2.88 2.88 0 0 0 -1.55.42 3.64 3.64 0 0 0 -1.16 1.12 5.33 5.33 0 0 0 -.72 1.68 8.24 8.24 0 0 0 -.25 2 7.93 7.93 0 0 0 .29 2.29 4 4 0 0 0 .78 1.49 2.81 2.81 0 0 0 1.13.82 3.66 3.66 0 0 0 1.36.26 3.48 3.48 0 0 0 1.45-.32 3.35 3.35 0 0 0 1.21-1 5 5 0 0 0 .83-1.67 8.16 8.16 0 0 0 .35-2.34 6.76 6.76 0 0 0 -.28-2m-9.4 0a5.72 5.72 0 0 1 1.32-1.93 6.12 6.12 0 0 1 2-1.31 7.39 7.39 0 0 1 2.68-.47 8.21 8.21 0 0 1 2.52.37 5.69 5.69 0 0 1 2 1.12 5.18 5.18 0 0 1 1.37 1.89 6.64 6.64 0 0 1 .5 2.66 5.84 5.84 0 0 1 -.48 2.37 6 6 0 0 1 -3.38 3.2 7.07 7.07 0 0 1 -2.6.46 9.3 9.3 0 0 1 -2.52-.33 5.51 5.51 0 0 1 -2.02-1.03 5.11 5.11 0 0 1 -1.38-1.88 6.83 6.83 0 0 1 -.5-2.73 5.93 5.93 0 0 1 .46-2.39"/><path d="m99.2 38.4a3.61 3.61 0 0 0 0-.6h-.62-.8l-.86.07-.81.09.06-.37c0-.12 0-.25 0-.37s0-.25 0-.37l-.06-.38h1 1 1 2.73 1 .92 1a2.5 2.5 0 0 0 -.06.38 2.22 2.22 0 0 0 0 .37 2.31 2.31 0 0 0 0 .37 2.2 2.2 0 0 0 .06.37l-.76-.09-.84-.07h-.79-.63a1.44 1.44 0 0 0 0 .24v.36 5.12 2.5s.06 1.44.1 2.14a6 6 0 0 0 -.62 0h-1.52a6.05 6.05 0 0 0 -.63 0c0-.7.08-1.41.1-2.14s0-1.56 0-2.5v-4.23c0-.33 0-.62 0-.89"/><path d="m106.42 38.72c0-.72 0-1.46-.09-2.19h1.51 1.5 2.23s1.08 0 1.31-.06a2.78 2.78 0 0 0 -.07.71v.43s0 .21.06.34l-1.08-.07-1.13-.07h-1-.63c0 .62-.07 1.23-.07 1.85s0 1.22 0 1.84c.73 0 1.4 0 2-.05l1.85-.09c0 .2-.06.34-.07.44s0 .22 0 .33a1.37 1.37 0 0 0 0 .28c0 .09 0 .23.06.41-1.29-.1-2.56-.15-3.84-.15v1.08s0 .73 0 1.09v2.11h1.93s1.29-.09 1.95-.17c0 .12 0 .24-.06.34s0 .24 0 .42 0 .32 0 .43a1.31 1.31 0 0 0 .06.25h-1.13-5.09-.33c0-.7.07-1.41.09-2.14s0-1.56 0-2.5v-2.3c0-.94 0-1.77 0-2.5"/><path d="m115.05 38.72c0-.72-.06-1.46-.1-2.19.19 0 .4 0 .62.06s.48 0 .76 0 .54 0 .77 0 .43 0 .62-.06c0 .73-.08 1.47-.1 2.19s0 1.56 0 2.5v4.16q0 .9 0 1.56h1.93s1.29-.09 2-.17a2.45 2.45 0 0 0 -.06.34v.42s0 .32 0 .43a.83.83 0 0 0 .06.25h-1.13-5.09-.33c0-.7.07-1.41.1-2.14s0-1.56 0-2.5v-2.3c0-.94 0-1.77 0-2.5"/><path d="m123.34 38.72c0-.72 0-1.46-.09-2.19h1.51 1.51q1.24 0 2.22 0c.65 0 1.08 0 1.31-.06a3.41 3.41 0 0 0 -.06.71v.43s0 .21.05.34l-1.07-.07-1.14-.07h-1-.62c0 .62-.08 1.23-.08 1.85s0 1.22 0 1.84c.74 0 1.4 0 2-.05l1.86-.09c0 .2-.06.34-.08.44s0 .22 0 .33 0 .18 0 .28 0 .23.07.41c-1.29-.1-2.57-.15-3.85-.15v1.08 1.09c0 .73 0 1.43.05 2.11h1.92s1.3-.09 2-.17c0 .12 0 .24-.05.34s0 .24 0 .42 0 .32 0 .43a1.37 1.37 0 0 0 .05.25h-1.12-5.1-.33c0-.7.07-1.41.09-2.14s0-1.56 0-2.5v-2.3c0-.94 0-1.77 0-2.5"/><path d="m135 37.36a1.8 1.8 0 0 0 -1.28.46 1.43 1.43 0 0 0 -.49 1.07 1.41 1.41 0 0 0 .39 1 4.3 4.3 0 0 0 1 .72c.38.21.8.42 1.24.62a6.29 6.29 0 0 1 1.14.77 3.7 3.7 0 0 1 1 1 3 3 0 0 1 .38 1.58 3.74 3.74 0 0 1 -.32 1.55 3.27 3.27 0 0 1 -.92 1.2 3.83 3.83 0 0 1 -1.41.76 5.89 5.89 0 0 1 -1.84.26 6.24 6.24 0 0 1 -1.63-.19 3.19 3.19 0 0 1 -1.09-.48c.11-.39.21-.75.29-1.08s.15-.68.2-1.07h.32a2.19 2.19 0 0 0 .26.7 2.22 2.22 0 0 0 .47.59 2.12 2.12 0 0 0 .69.4 2.91 2.91 0 0 0 .92.14 2 2 0 0 0 1.49-.51 1.67 1.67 0 0 0 .49-1.22 1.48 1.48 0 0 0 -.37-1 3.83 3.83 0 0 0 -.93-.72c-.38-.2-.78-.41-1.22-.61a5.3 5.3 0 0 1 -1.22-.72 3.53 3.53 0 0 1 -.93-1 3 3 0 0 1 -.37-1.59 3.71 3.71 0 0 1 .31-1.56 3.28 3.28 0 0 1 .84-1.13 3.53 3.53 0 0 1 1.21-.69 4.31 4.31 0 0 1 1.44-.24 5.16 5.16 0 0 1 1.6.22 3.76 3.76 0 0 1 1.18.61c-.1.26-.19.51-.26.75s-.17.55-.28.92h-.3a2 2 0 0 0 -2-1.45"/></g></svg>