<svg id="Capa_1" data-name="Capa 1" xmlns="http://www.w3.org/2000/svg" viewBox="0 0 1920 1080"><defs><style>.cls-1{fill:#0a72b8;}</style></defs><title>TTS</title><path class="cls-1" d="M1486.29,929.51q-1.18,16.68-2.35,33.36c0,.78-.23,1.19-1.12,1.17-3.21,0-6.42,0-9.63,0-1.1,0-1.09-.54-1-1.32q.73-7.43,1.46-14.86,1.23-12.43,2.47-24.87c.37-3.66.75-7.32,1.05-11,.1-1.19.57-1.69,1.81-1.66a69.59,69.59,0,0,1,7.5.15,6.72,6.72,0,0,1,5.7,4.68c2.91,7.45,5.85,14.9,8.75,22.36.87,2.21,1.68,4.44,2.49,6.59,2.3-5.9,4.63-11.89,7-17.88,1.4-3.57,2.88-7.12,4.18-10.73a7.19,7.19,0,0,1,7.26-5.18c2.17,0,4.35,0,6.53,0,.84,0,1.24.32,1.33,1.23q1.46,15.35,3,30.69c.67,6.78,1.3,13.57,2,20.35.15,1.3-.3,1.41-1.36,1.39-2.93,0-5.88-.09-8.81,0-1.26.05-1.57-.46-1.64-1.56-.3-4.7-.67-9.4-1-14.09-.46-6.53-.91-13.06-1.37-19.65-.68.31-.7,1-.91,1.48q-5,12.07-9.92,24.16c-1.57,3.81-7.36,5.35-10.7,2.86a5.24,5.24,0,0,1-1.62-2.39l-10.53-25.67C1486.32,928.69,1486.46,929.37,1486.29,929.51Z"/><path class="cls-1" d="M1656.75,932c-1.3-10.62-8-18.34-18.57-20.72-9.76-2.19-19.45-.63-29,1.9-1.11.3-.85,1.11-.85,1.82v23.39c0,7.69,0,15.37,0,23.06,0,1.56.56,2,2,2.19,2.6.22,5.16.63,7.76.81,6.8.49,13.59.78,20.35-.48,8.43-1.56,14.59-5.79,17.12-14.26A42.71,42.71,0,0,0,1656.75,932Zm-12.85,13.33c-1.37,6.43-5,9.4-12,10.1a54.64,54.64,0,0,1-10.77-.26c-1-.11-1-.74-1-1.48v-32c0-.63-.15-1.26.85-1.41,4-.6,8.1-1.19,12.18-.41,6.09,1.15,9.51,5.12,10.84,11A33.37,33.37,0,0,1,1643.9,945.31Z"/><path class="cls-1" d="M1770.81,937.16c0,8.07,0,16.14,0,24.2,0,1.31-.35,1.7-1.63,1.58a27.11,27.11,0,0,1-8.43-1.72,3.64,3.64,0,0,0-3.35.14,37.42,37.42,0,0,1-21.16,3.13c-7.57-1-11.51-5.32-12.49-13.18a63.27,63.27,0,0,1-.41-7.78c0-10.13,0-20.25,0-30.38,0-1.42.41-1.88,1.81-1.92,2.77-.09,5.54-.3,8.3-.55,1.35-.13,1.75.3,1.75,1.67,0,10.78,0,21.55,0,32.33a18.68,18.68,0,0,0,.53,4.34,6.32,6.32,0,0,0,5.66,5.1c6,.84,11.52-.77,16.94-3.09.92-.39.69-1.12.69-1.78q0-15.91,0-31.84c0-1.46,0-2.92,0-4.39.06-2.53-.58-2.41,2.48-2.3,2.61.1,5.2.42,7.81.55,1.21.05,1.53.51,1.52,1.69C1770.79,921,1770.81,929.09,1770.81,937.16Z"/><path class="cls-1" d="M1694.5,941.74c-3.37,0-6.75,0-10.12,0-1.1,0-1.52.23-1.5,1.41q.12,5.11,0,10.23c0,1.08.38,1.36,1.38,1.49a84.4,84.4,0,0,0,24.07-.29c1.17-.18,1.51.12,1.46,1.29-.09,2.17-.06,4.34,0,6.5,0,.87-.24,1.21-1.14,1.34a107.43,107.43,0,0,1-20.35,1.06,88.82,88.82,0,0,1-15.82-2.09c-1-.21-1.33-.54-1.33-1.59q.06-23.64,0-47.27a1.27,1.27,0,0,1,1.23-1.49,101.82,101.82,0,0,1,27.43-1.79c2.55.18,5.08.55,7.63.77,1.09.09,1.48.53,1.44,1.63-.08,2.17-.06,4.33,0,6.5,0,.94-.11,1.32-1.26,1.14a87.23,87.23,0,0,0-22.77-.52c-1.47.16-2,.57-2,2.13.14,3,.12,6,0,8.93-.05,1.35.43,1.6,1.66,1.59,6.7-.06,13.39,0,20.09-.06,1.33,0,1.66.4,1.6,1.64-.1,1.94-.1,3.9,0,5.85.06,1.23-.25,1.69-1.59,1.65C1701.25,941.67,1697.88,941.74,1694.5,941.74Z"/><path class="cls-1" d="M1806.41,910.3a43,43,0,0,1,14.15,3c1.18.46,1.39,1,.93,2.16-.78,2-1.44,4-2,6-.31,1.06-.74,1.15-1.71.77a32.34,32.34,0,0,0-13-2.53,10.61,10.61,0,0,0-4.86,1.19c-3.21,1.78-3.57,5.47-.76,7.8a23.09,23.09,0,0,0,6.66,3.37,83.18,83.18,0,0,1,10.47,4.47c5.15,2.86,8.14,6.93,7.77,13-.38,6.38-3.65,10.71-9.55,13.12a34.74,34.74,0,0,1-14.9,2.15,92.58,92.58,0,0,1-13.28-1.49c-1.28-.24-1.58-.69-1.23-1.94.6-2.08,1-4.2,1.49-6.31.19-.91.46-1.2,1.51-1a74.22,74.22,0,0,0,14.27,1.39,18.08,18.08,0,0,0,6.1-1,5.08,5.08,0,0,0,3.67-4.32c.29-2.33-.83-3.83-2.66-5-2.8-1.75-6-2.62-9-3.69a32.36,32.36,0,0,1-9.88-4.89,14,14,0,0,1,.34-22.1C1795.13,911.29,1800,910.23,1806.41,910.3Z"/><path class="cls-1" d="M1486.29,929.51c-.06-.34-.24-.83.1-1s.42.34.46.66Z"/><path class="cls-1" d="M1457.09,943.31c0-5.79.06-11.59,0-17.38-.09-8.34-3.56-13.23-11.11-14.8-9.74-2-19.24-.51-28.5,2.84-.91.33-.94.83-.7,1.63.64,2.07,1.3,4.13,1.77,6.24.29,1.26.77,1.28,1.88.94a48.29,48.29,0,0,1,16.54-2.37c5.64.28,8.06,2.76,8.19,8.34,0,.75-.06,1.52,0,2.27.17,1.32-.29,1.72-1.67,1.73-5.54,0-11.09-.32-16.61.62-8.16,1.39-13.14,6-14.37,13.37-1.16,7.06,1.78,13.25,7.68,16.09a21.64,21.64,0,0,0,9.16,2,32.23,32.23,0,0,0,14.81-3.35,2.49,2.49,0,0,1,2.44-.3c2.85,1.36,6,1.54,9.06,1.76,1.17.09,1.45-.34,1.44-1.45C1457.07,955.43,1457.09,949.37,1457.09,943.31Zm-13,9.82c-4.3,1.38-8.62,2.62-13.22,2.38-5.44-.29-8.24-4.17-6.75-9.38,1-3.6,4-4.6,7.15-4.87,4.39-.37,8.8-.39,13.2-.61.9,0,1,.4,1,1.08,0,1.67,0,3.35,0,5,0,1.46-.07,2.92,0,4.38A1.66,1.66,0,0,1,1444.05,953.13Z"/><path class="cls-1" d="M1591,943.31c0-5.79.06-11.59,0-17.38-.09-8.34-3.56-13.23-11.11-14.8-9.74-2-19.24-.51-28.5,2.84-.91.33-.94.83-.7,1.63.64,2.07,1.3,4.13,1.77,6.24.29,1.26.77,1.28,1.88.94a48.29,48.29,0,0,1,16.54-2.37c5.64.28,8.06,2.76,8.19,8.34,0,.75-.06,1.52,0,2.27.17,1.32-.29,1.72-1.67,1.73-5.54,0-11.09-.32-16.61.62-8.16,1.39-13.14,6-14.37,13.37-1.16,7.06,1.78,13.25,7.68,16.09a21.64,21.64,0,0,0,9.16,2,32.23,32.23,0,0,0,14.81-3.35,2.49,2.49,0,0,1,2.44-.3c2.85,1.36,6,1.54,9.06,1.76,1.17.09,1.45-.34,1.44-1.45C1591,955.43,1591,949.37,1591,943.31Zm-13,9.82c-4.3,1.38-8.62,2.62-13.22,2.38-5.44-.29-8.24-4.17-6.75-9.38,1-3.6,4-4.6,7.15-4.87,4.39-.37,8.8-.39,13.2-.61.9,0,1,.4,1,1.08,0,1.67,0,3.35,0,5,0,1.46-.07,2.92,0,4.38A1.66,1.66,0,0,1,1578,953.13Z"/><path class="cls-1" d="M1362.92,939.21a11.13,11.13,0,0,0-8.09-3.34,11.9,11.9,0,0,0-6.5,1.78V925.1h-8.1v31.15c0,2.12-.07,4.53-.18,6.13l-.11,2h7.53l.08-1.41a11,11,0,0,0,6.61,1.93c6.31,0,12.73-5.09,12.73-14.78A15,15,0,0,0,1362.92,939.21Zm-9.65,18.49a4.89,4.89,0,0,1-4.79-3.68,6,6,0,0,1-.15-1.22v-4.35a6.36,6.36,0,0,1,.18-1.33,5.11,5.11,0,0,1,4.9-4c3.94,0,5.35,3.82,5.35,7.13C1358.76,952,1358.35,957.7,1353.27,957.7Z"/><path class="cls-1" d="M1392.51,936.42l-7.57,19.79c-3,8-5.35,12.89-8.84,15.89a13.6,13.6,0,0,1-6.27,3.31l-1.64.26-2.11-7.06,1.78-.52a9.89,9.89,0,0,0,3.19-1.81,11.18,11.18,0,0,0,3.19-4.24.92.92,0,0,0,.19-.44s-.11-.15-.19-.37l-10-24.81h8.84l5.57,15.08,5.12-15.08Z"/><path class="cls-1" d="M744.31,132V637.32h505.36V132ZM845.52,323.33H786.71v-23.9A10.26,10.26,0,0,1,797,289.17h48.54Zm112.74,0H898a8.31,8.31,0,0,0-8.3,8.3V480.1H855.56V289.16h102.7Zm97.84,0h-45.34a8.29,8.29,0,0,0-8.29,8.29V480.1H968.3V289.16h79.48a8.32,8.32,0,0,1,8.32,8.31ZM1127.73,480l-2.64-.1c-4.52-.18-9-.51-13.29-1-7.89-.78-13.85-1.93-18.29-3.47a35.76,35.76,0,0,1-14.89-8.45,37.26,37.26,0,0,1-9.59-15.57c-2-5.86-3.22-13.07-3.75-22l-.31-2.23V421.1a6.37,6.37,0,0,1,6.37-6.37h24.4v14.08a57,57,0,0,0,1.73,11.74,6.53,6.53,0,0,0,3.24,4l.36.15c2.48,1.17,6.62,2.29,12.28,3.35a86.37,86.37,0,0,0,12,1.37l2.39.15Zm76.45-52.56c-.38,9.72-1.47,17.25-3.38,23.13a39.8,39.8,0,0,1-8.82,15.25l-.84,1.27-1.45,1.06a29.8,29.8,0,0,1-5.32,4l-.89.48-8,3.27c-3.78.84-6.54,1.48-8.27,1.8a129.24,129.24,0,0,1-12.83,1.65c-3.73.33-6.78.49-9,.49h-.59c-.76.07-1.8.12-3,.17l-4.06.08V449.69l3.91-.08a76.12,76.12,0,0,0,8.67-.66c4.62-.58,6.65-.94,7.54-1.14,6-1.14,9.08-2.23,10.57-2.94a7.87,7.87,0,0,0,3.53-4.25,66.26,66.26,0,0,0,2-11.86l0-8.65a51.44,51.44,0,0,0-2.13-12.07,5.26,5.26,0,0,0-2.41-2.82l-.31-.18c-1.29-.63-4.28-1.77-10.9-3.24-5.64-1.22-13.5-1.83-23.34-1.83a162.7,162.7,0,0,1-19.71-1c-10.42-.89-17.55-2-21.64-3.37a39.21,39.21,0,0,1-14.73-8.55,37.09,37.09,0,0,1-10-16.18c-2-6.14-3.2-13.78-3.76-23.37V342c.56-9.79,1.78-17.43,3.76-23.51a36.51,36.51,0,0,1,10-16.16l.3-.25a49.55,49.55,0,0,1,14.23-8c4.41-1.58,10.48-2.72,18.54-3.56,4.32-.45,8.78-.78,13.27-1l2.64-.1v30.69l-2.41.1c-7.69.41-13.88,1.27-18.37,2.59l-.58.18A14.51,14.51,0,0,0,1096.3,335c-.25,2.1-.46,4.16-.56,6.34v7.61c.13,1.78.31,3.7.53,5.55a14.79,14.79,0,0,0,10.35,12.15q9.9,2.89,28.21,2.9a219.19,219.19,0,0,1,22.4,1.16,117.12,117.12,0,0,1,18.59,3.12,34.28,34.28,0,0,1,13.42,7.54l2.18,2.15A37,37,0,0,1,1200.8,399c1.86,5.88,3,13.57,3.38,22.85Zm0-81.53a6.59,6.59,0,0,1-6.58,6.58h-23.68v-12a65.53,65.53,0,0,0-1.89-11.55,6.28,6.28,0,0,0-2.89-3.61l-.32-.19c-1.32-.68-4.29-1.85-10.65-3.22a98.89,98.89,0,0,0-16.52-1.72l-3.88-.11V289.43l4,.07c5.14.13,10.47.49,15.82,1,7.94.82,14,2,18.57,3.48,6.11,2.33,10.58,4.87,14.13,8a35.53,35.53,0,0,1,10.32,16.09c2,6.08,3.15,13.74,3.53,23.38Z"/><path class="cls-1" d="M314.5,773.37c-9.11,0-16.32,4-21.65,12a1.2,1.2,0,0,1-2.19-.7v-6.39a5,5,0,0,0-5-5H268.78V839.7l0,0,0,26.82v7.76h17a4.93,4.93,0,0,0,4.93-4.93V813.48A17.38,17.38,0,0,1,294.77,802a18.82,18.82,0,0,1,14.77-6.83,24.28,24.28,0,0,1,8.69,1.41V773.54C317,773.43,315.78,773.37,314.5,773.37Z"/><path class="cls-1" d="M937.21,830.57a4.65,4.65,0,0,0,4.68-4.56h0q0-23.71-14.15-38.19T891,773.37q-21.27,0-35.4,14.45t-14.1,36.36q0,21.38,14.15,35.57T892.32,874c9.67,0,18-1.69,25.06-5.16a46.9,46.9,0,0,0,18.09-15.86,27.93,27.93,0,0,0,4.59-9.49h-21a9.36,9.36,0,0,0-6.26,2.42c-6.95,6.24-14.35,8.33-22.34,8.33-7.48,0-15.86-3.89-20.67-7.88A24.81,24.81,0,0,1,861.73,834a3.08,3.08,0,0,1,3-3.91l58.55.35Zm-72.77-16.38a2.4,2.4,0,0,1-2.23-3.32,32.18,32.18,0,0,1,56.58-4.68c.27.39.52.79.77,1.21a2.93,2.93,0,0,1,.3.45c.35.59.67,1.21,1,1.83s.53,1.16.77,1.74c.1.27.23.57.33.86.24.62.44,1.27.64,1.91Z"/><path class="cls-1" d="M689.58,853.33c-7.94,0-13.61-1.22-17.05-3.7a23.25,23.25,0,0,1-11.68-11.31c-3.81-7.9-5-12.64-5.46-21.42v-39a3.08,3.08,0,0,1,0-.64V730.36a11,11,0,0,0-10.85-11l-10.88-.08V818.5a56.66,56.66,0,0,0,19.55,42.83,51.86,51.86,0,0,0,15.9,9.33c5.63,2,14,3.07,20.51,3.07Z"/><path class="cls-1" d="M489.17,780.22l-18.5,66-18.5-66a9.62,9.62,0,0,0-9.29-6.63H427.64l27.05,94.74a7.64,7.64,0,0,0,7.43,5.4h17.1a7.64,7.64,0,0,0,7.43-5.4l27.06-94.74H498.47A9.62,9.62,0,0,0,489.17,780.22Z"/><path class="cls-1" d="M1596.4,774.08a50,50,0,1,0,50,50A50,50,0,0,0,1596.4,774.08Zm0,80c-17.79,0-30-12.22-30-30s12.22-30,30-30,30,12.22,30,30S1614.17,854.11,1596.4,854.11Z"/><path class="cls-1" d="M1411,846.29a32,32,0,0,1-21.86,7.81c-16.68-.42-28.4-11.86-29.14-28.53-.82-18.46,11.7-31.48,30-31.48a32,32,0,0,1,23.41,10.13,24.14,24.14,0,0,0,17.53,7.82h7c-6.29-21.21-26.25-38.72-49.67-37.94a50,50,0,0,0,1.71,100c21.17,0,39.25-15.33,46.56-33.9h-9.76A24.2,24.2,0,0,0,1411,846.29Z"/><path class="cls-1" d="M1520.17,785.25q-9.29-11.19-24.88-11.17a24.28,24.28,0,0,0-20.22,10,2,2,0,0,1-3.63-1.26V728.46a8.62,8.62,0,0,0-8.62-8.63h-13.25V839.25l0,0,0,26.82v7.75h13.25a8.62,8.62,0,0,0,8.62-8.62V815.36a19.55,19.55,0,0,1,8.07-16.19,18.62,18.62,0,0,1,10.82-3.26c6.89,0,9.75,2,13,6a22.75,22.75,0,0,1,4.73,14.43v57.54h13.16a8.62,8.62,0,0,0,8.62-8.62V813.39Q1529.54,796.47,1520.17,785.25Z"/><path class="cls-1" d="M1708.33,774.08a50,50,0,1,0,50,50A50,50,0,0,0,1708.33,774.08Zm0,80c-17.79,0-30-12.22-30-30s12.22-30,30-30,30,12.22,30,30S1726.1,854.11,1708.33,854.11Z"/><path class="cls-1" d="M1824,853.58c-7.94,0-13.61-1.22-17-3.68a23.29,23.29,0,0,1-11.68-11.25c-3.81-7.87-5-12.58-5.46-21.32V778.51a3.08,3.08,0,0,1,0-.64V732a11.78,11.78,0,0,0-11.67-11.79l-10.06-.07v98.74a56.26,56.26,0,0,0,19.55,42.62,51.9,51.9,0,0,0,15.9,9.28c5.64,2,14,3,20.51,3Z"/><path class="cls-1" d="M415,834.52c0-10.7.09-21.41,0-32.11-.17-15.42-6.58-24.46-20.53-27.35-18-3.74-35.56-1-52.68,5.24-1.67.6-1.74,1.54-1.28,3,1.18,3.82,2.39,7.64,3.27,11.53.53,2.34,1.42,2.36,3.46,1.74,9.95-3,20.1-4.92,30.57-4.38s14.91,5.1,15.15,15.41a42,42,0,0,0,.05,4.2c.31,2.45-.54,3.18-3.1,3.2-10.24,0-20.49-.6-30.69,1.14-15.08,2.58-24.28,11-26.55,24.72-2.16,13,3.29,24.49,14.18,29.74a39.84,39.84,0,0,0,16.94,3.7,59.4,59.4,0,0,0,27.36-6.18c1.44-.7,2.74-1.42,4.52-.57,5.27,2.52,11,2.87,16.74,3.27,2.18.16,2.68-.63,2.66-2.69C415,856.93,415,845.73,415,834.52Zm-24.11,18.15c-8,2.55-15.93,4.85-24.44,4.4-10.05-.53-15.23-7.71-12.47-17.34,1.91-6.64,7.32-8.5,13.22-9,8.1-.68,16.26-.72,24.39-1.13,1.66-.08,1.77.74,1.76,2-.05,3.1,0,6.2,0,9.3,0,2.7-.13,5.41.05,8.1C393.54,851,392.93,852,390.92,852.67Z"/><path class="cls-1" d="M263.9,722.66v17.59H235.23a6.76,6.76,0,0,0-6.77,6.77V874.31H205V747a6.73,6.73,0,0,0-6.7-6.77H169.58V722.66c.5-.07,1.11-.07,1.79-.13,9.9-.8,36.73-2.83,46.88-2.83C228.89,719.7,256.76,722,263.9,722.66Z"/><path class="cls-1" d="M847.44,722.66v17.59H818.83a6.83,6.83,0,0,0-6.77,6.77V873.94H788.68V747a6.83,6.83,0,0,0-6.77-6.77H753.18V722.72c8.06-.68,37.9-3,48.73-3,2.65,0,6.4.13,10.58.37C825.17,720.75,842.15,722.16,847.44,722.66Z"/><path class="cls-1" d="M1233.76,830.29c4,17.51,16,26.67,37,26.67,22.34,0,31.3-10.23,31.3-23.85,0-14.57-7.4-22.44-36.76-29.5-36.53-8.81-48.44-21.49-48.44-42.51,0-23.11,17.09-41.27,51.11-41.27,30.76,0,46.25,14.71,51.66,31.38a7.51,7.51,0,0,1-7.23,9.71H1299c-2.48-12.62-10.25-23.44-31.74-23.44-17.38,0-27.23,7.73-27.23,21.39,0,13.45,8.1,18.77,34.11,25,43.12,10.43,51.08,27.07,51.08,46.77,0,24.9-18.53,43.91-55.93,43.91-32.47,0-49.63-14.89-55.92-34.17a7.72,7.72,0,0,1,7.34-10.11Z"/><path class="cls-1" d="M1137.33,785.25c-6.2-7.46-14.47-11.17-24.88-11.17a24.28,24.28,0,0,0-20.22,10,2,2,0,0,1-3.63-1.26V728.46a8.62,8.62,0,0,0-8.62-8.63h-13.26V839.25l0,0,0,26.82v7.75H1080a8.62,8.62,0,0,0,8.62-8.62V815.36a19.55,19.55,0,0,1,8.07-16.19,18.6,18.6,0,0,1,10.82-3.26c6.89,0,9.75,2,12.94,6a22.7,22.7,0,0,1,4.74,14.43v57.54h13.15a8.62,8.62,0,0,0,8.63-8.62V813.39Q1146.68,796.47,1137.33,785.25Z"/><path class="cls-1" d="M1026.26,846.29a32,32,0,0,1-21.87,7.81c-16.68-.42-28.39-11.86-29.13-28.53-.83-18.46,11.7-31.48,30-31.48a32,32,0,0,1,23.4,10.13,24.16,24.16,0,0,0,17.54,7.82h7c-6.29-21.21-26.25-38.72-49.67-37.94a50,50,0,0,0,1.72,100c21.16,0,39.24-15.33,46.55-33.9H1042A24.17,24.17,0,0,0,1026.26,846.29Z"/><path class="cls-1" d="M614.94,830.57a4.66,4.66,0,0,0,4.69-4.56h0q0-23.71-14.15-38.19t-36.74-14.45c-14.17,0-26,4.81-35.39,14.45s-14.1,21.76-14.1,36.36q0,21.38,14.15,35.57T570.06,874c9.66,0,18-1.69,25.06-5.16a47,47,0,0,0,18.09-15.86,27.8,27.8,0,0,0,4.58-9.49h-21a9.36,9.36,0,0,0-6.26,2.42c-6.95,6.24-14.35,8.33-22.34,8.33-7.49,0-15.86-3.89-20.67-7.88A24.76,24.76,0,0,1,539.46,834a3.08,3.08,0,0,1,3-3.91l58.54.35Zm-72.77-16.38a2.4,2.4,0,0,1-2.22-3.32,32.18,32.18,0,0,1,56.58-4.68c.27.39.52.79.77,1.21a2.28,2.28,0,0,1,.29.45c.35.59.67,1.21,1,1.83s.52,1.16.77,1.74c.1.27.22.57.32.86.25.62.45,1.27.65,1.91Z"/></svg>