<svg viewBox="0 0 45.62 51.76" xmlns="http://www.w3.org/2000/svg"><g fill="#fff"><path d="m16.94 43.9a3.21 3.21 0 0 0 3.21 3.21h5.58a3.21 3.21 0 0 0 3.21-3.21v-4.58h-12z"/><path d="m23 9.16a12.42 12.42 0 0 0 -10.77 18.72c.61 1.22 4.77 6.21 4.71 9.12v.2h12v-.2s0 0 0 0c0-2.37 2.1-4.91 4.78-9.12a12.43 12.43 0 0 0 -10.72-18.72"/><path d="m20.15 49.26a4.89 4.89 0 0 1 -1.15-.13 3.22 3.22 0 0 0 3.17 2.63h1.54a3.24 3.24 0 0 0 3.18-2.63 5 5 0 0 1 -1.16.13z"/><path d="m22.94 5.64a1.08 1.08 0 0 0 1.06-1.08v-3.48a1.08 1.08 0 1 0 -2.16 0v3.48a1.09 1.09 0 0 0 1.08 1.08"/><path d="m37.51 6.77-2.46 2.46a1.09 1.09 0 0 0 0 1.53 1.07 1.07 0 0 0 1.52 0l2.43-2.46a1.09 1.09 0 0 0 0-1.53 1.07 1.07 0 0 0 -1.52 0"/><path d="m44.54 21.86h-3.48a1.08 1.08 0 1 0 0 2.16h3.48a1.08 1.08 0 0 0 0-2.16"/><path d="m4.56 21.6h-3.48a1.08 1.08 0 1 0 0 2.16h3.48a1.08 1.08 0 1 0 0-2.16"/><path d="m10.76 9.05-2.46-2.46a1.09 1.09 0 0 0 -1.53 0 1.07 1.07 0 0 0 0 1.52l2.47 2.46a1.07 1.07 0 0 0 1.52-1.52"/></g></svg>