<svg xmlns="http://www.w3.org/2000/svg" viewBox="0 0 186.45 51.95"><defs><style>.cls-1{fill:#424242;}.cls-2{fill:#226da7;}</style></defs><g id="Capa_2" data-name="Capa 2"><g id="wireframe"><path class="cls-1" d="M105,51.19a22.89,22.89,0,0,1-16.84-7,22.88,22.88,0,0,1-7-16.83,23,23,0,0,1,7-16.87,23.86,23.86,0,0,1,33.71,0,23.07,23.07,0,0,1,7,16.87,23,23,0,0,1-7,16.83,23,23,0,0,1-16.87,7m0-39.84A15.38,15.38,0,0,0,93.68,16,15.44,15.44,0,0,0,89,27.36a15.3,15.3,0,0,0,4.72,11.28,15.9,15.9,0,0,0,22.61,0A15.37,15.37,0,0,0,121,27.36,15.52,15.52,0,0,0,116.29,16,15.51,15.51,0,0,0,105,11.35"/><path class="cls-1" d="M32.06,23.87a6.66,6.66,0,0,1-6.64-6.64,6.66,6.66,0,0,1,6.64-6.63,6.47,6.47,0,0,1,4,1.37,1.13,1.13,0,0,1,.43.73,1.08,1.08,0,0,1-.23.81,1,1,0,0,1-.72.42,1.1,1.1,0,0,1-.82-.21,4.44,4.44,0,0,0-7.14,3.51,4.44,4.44,0,0,0,7.43,3.28l.07-.05V18H31.5a1.06,1.06,0,0,1-.78-.32,1,1,0,0,1-.32-.78,1.09,1.09,0,0,1,1.1-1.1h4.73a1.1,1.1,0,0,1,.78.32,1.07,1.07,0,0,1,.33.78l0,5.88a1,1,0,0,1-.33.77,1,1,0,0,1-.77.33h0a1.09,1.09,0,0,1-.67-.23,1.11,1.11,0,0,1-.38-.57,6.51,6.51,0,0,1-3.09.76"/><path class="cls-1" d="M41.91,23.91a1,1,0,0,1-.77-.33,1,1,0,0,1-.33-.77V11.75a1,1,0,0,1,.33-.77,1.06,1.06,0,0,1,1.54,0,1,1,0,0,1,.33.77V22.81a1,1,0,0,1-.33.77,1,1,0,0,1-.77.33"/><path class="cls-1" d="M55.34,10.72a1.05,1.05,0,0,1,.62.55,1.07,1.07,0,0,1,0,.84L52.12,23.18h0l-.06.14,0,0a1.25,1.25,0,0,1-.08.12s0,0,0,0l-.1.09s0,0,0,0a.53.53,0,0,1-.11.09s0,0,0,0l-.13.07h0l-.11,0h0l-.11,0h0l-.18,0-.17,0h-.05l-.12,0h0l-.11,0h0l-.11-.07h0a.31.31,0,0,1-.11-.09s0,0,0,0l-.08-.09s0,0,0,0l-.07-.12,0,0a.91.91,0,0,1-.07-.14h0L46.18,12.11a1.07,1.07,0,0,1,0-.84,1.05,1.05,0,0,1,.62-.55,1.07,1.07,0,0,1,.84,0,1,1,0,0,1,.55.63l2.86,8.13L54,11.39a1,1,0,0,1,.56-.63,1,1,0,0,1,.83,0"/><path class="cls-1" d="M66.69,21.71a1,1,0,0,1,.77.33,1.1,1.1,0,0,1-.77,1.87H60a1.06,1.06,0,0,1-.77-.32,1,1,0,0,1-.33-.77V11.69a1,1,0,0,1,.33-.78,1.06,1.06,0,0,1,.77-.32h0l6.7,0a1,1,0,0,1,.78.32,1.1,1.1,0,0,1,.32.78,1,1,0,0,1-.33.77,1,1,0,0,1-.77.33h0l-5.6,0v3.36h4a1.1,1.1,0,1,1,0,2.19h-4v3.37Z"/><path class="cls-1" d="M12.4,33.4a1.08,1.08,0,0,1,.58.4,1,1,0,0,1,.22.66V45.61a1.06,1.06,0,0,1-.32.77A1.1,1.1,0,0,1,11,45.61V38.39L7.55,44.11h0l0,.06,0,0,0,0,0,0,0,0-.06,0,0,0-.06,0s0,0,0,0h0l-.06,0,0,0-.06,0a1.12,1.12,0,0,1-.44.09H6.51l-.24,0H6.2l-.07,0,0,0L6,44.5H6a.15.15,0,0,1-.06,0l0,0a.15.15,0,0,1-.06,0l0,0,0,0,0,0,0,0a.15.15,0,0,1,0-.06h0L2.2,38.39v7.22a1,1,0,0,1-.33.77,1,1,0,0,1-.77.32,1,1,0,0,1-.78-.32A1.06,1.06,0,0,1,0,45.61V34.46a1,1,0,0,1,.22-.66,1.07,1.07,0,0,1,.59-.4,1.17,1.17,0,0,1,.69,0A1.05,1.05,0,0,1,2,33.9l4.57,7.54,4.56-7.54a1,1,0,0,1,.53-.46,1.19,1.19,0,0,1,.7,0"/><path class="cls-1" d="M25,44.51a1,1,0,0,1,.76.32,1.07,1.07,0,0,1,.33.78,1,1,0,0,1-.33.77,1,1,0,0,1-.76.33H18.31a1.11,1.11,0,0,1-1.09-1.1V34.49a1.09,1.09,0,0,1,1.09-1.1H25a1.07,1.07,0,0,1,.78.33,1.13,1.13,0,0,1,.31.78,1,1,0,0,1-.33.77,1,1,0,0,1-.76.32h0l-5.61,0V39h4.05a1.1,1.1,0,0,1,.78.32,1.1,1.1,0,0,1-.78,1.87H19.41v3.37Z"/><path class="cls-1" d="M36.29,35.57H33.53a1.09,1.09,0,1,1,0-2.18h7.71a1,1,0,0,1,.77.32,1.09,1.09,0,0,1,0,1.54,1,1,0,0,1-.77.32H38.48v10a1.07,1.07,0,0,1-.33.78,1,1,0,0,1-.77.31,1,1,0,0,1-.77-.31,1.1,1.1,0,0,1-.32-.78Z"/><path class="cls-1" d="M53.77,46.71a1.11,1.11,0,0,1-1.1-1.11V41.16H47V45.6a1.06,1.06,0,0,1-.31.78,1.09,1.09,0,0,1-1.56,0,1,1,0,0,1-.32-.78V34.52a1.1,1.1,0,0,1,1.88-.78,1.09,1.09,0,0,1,.31.78V39h5.72V34.52a1.1,1.1,0,0,1,.32-.78,1.07,1.07,0,0,1,.78-.33,1.05,1.05,0,0,1,.78.33,1.07,1.07,0,0,1,.33.78V45.6a1,1,0,0,1-.33.78,1.05,1.05,0,0,1-.78.33"/><path class="cls-1" d="M66.69,44.51a1,1,0,0,1,.77.32,1.07,1.07,0,0,1,.33.78,1,1,0,0,1-.33.77,1,1,0,0,1-.77.33H60a1,1,0,0,1-.77-.33,1,1,0,0,1-.33-.77V34.49a1,1,0,0,1,.33-.78,1,1,0,0,1,.77-.32h6.71a1,1,0,0,1,.78.33,1.1,1.1,0,0,1,.32.78,1,1,0,0,1-.33.77,1,1,0,0,1-.77.32h0l-5.6,0V39h4a1.06,1.06,0,0,1,.78.32,1.1,1.1,0,0,1-.78,1.87h-4v3.37Z"/><path class="cls-1" d="M186.45,46.61a5,5,0,1,1-5-5,5,5,0,0,1,5,5"/><path class="cls-1" d="M181.48,37.06a2.29,2.29,0,0,1-2.29-2.3V3.62a2.29,2.29,0,0,1,4.58,0V34.76a2.29,2.29,0,0,1-2.29,2.3"/><path class="cls-2" d="M167.89,12.75a4.2,4.2,0,0,0-5.94-.12L145.06,28.88l-3.58-3.58a4.2,4.2,0,0,0-5.95,5.94l6.5,6.49a4.2,4.2,0,0,0,5.88.06l19.87-19.1a4.2,4.2,0,0,0,.11-5.94m-1.17,4.84-19.87,19.1a2.64,2.64,0,0,1-1.85.75,2.68,2.68,0,0,1-1.89-.79l-6.5-6.49a2.68,2.68,0,1,1,3.79-3.78L145,31l18-17.29a2.68,2.68,0,0,1,3.71,3.86"/><path class="cls-2" d="M149.9,33.76l-3.05,2.93a2.66,2.66,0,0,1-3.74,0l-6.5-6.49a2.68,2.68,0,1,1,3.79-3.78L145,31,146.13,30l-5-5a4.2,4.2,0,1,0-5.95,5.93l19.79,19.87a4.2,4.2,0,1,0,5.95-5.93Z"/><path class="cls-2" d="M136.61,30.16a2.68,2.68,0,1,1,3.79-3.78l1.16,1.16V4.2a4.2,4.2,0,1,0-8.4,0V47.75a4.2,4.2,0,1,0,8.4,0V35.11Z"/></g></g></svg>