<svg viewBox="0 0 102.8 102.67" xmlns="http://www.w3.org/2000/svg"><path d="m100.66 98.38h-23.56v-22.26c16.12-8.63 25.7-22.61 25.7-37.64 0-15.39-10-29.69-26.87-38.25l-.19-.07a1.84 1.84 0 0 0 -.25-.09h-.27l-.22-.07h-.27l-.27.05a1.84 1.84 0 0 0 -.25.09l-.21.09c-16.84 8.56-26.89 22.86-26.89 38.25 0 15 9.59 29 25.71 37.64v22.26h-22.61l-10.32-10.31c3.35-11.52 1.23-22.46-5.8-29.49-4.83-4.83-11.4-7.38-19-7.38a37.94 37.94 0 0 0 -11.77 1.94l-.21.1a1.24 1.24 0 0 0 -.2.1 2.4 2.4 0 0 0 -.26.18l-.17.14a2.43 2.43 0 0 0 -.2.25 1.18 1.18 0 0 0 -.13.18 1.55 1.55 0 0 0 -.14.29s0 .09-.07.14a.94.94 0 0 0 0 .16c-3.87 11.92-1.83 23.32 5.43 30.61 4.83 4.83 11.41 7.38 19 7.38a37.55 37.55 0 0 0 10.48-1.56l7.27 7.27h-42a2.15 2.15 0 0 0 0 4.29h98.52a2.15 2.15 0 0 0 0-4.29zm-23.56-27.17v-8l17.5-9.51c-3.6 6.81-9.6 12.87-17.5 17.51zm20.09-23.8-20.09 11v-14.68l19.6-15.68a30.91 30.91 0 0 1 .49 19.36zm-2.19-23.41-17.9 14.25v-32.51c8.18 4.81 14.3 11.13 17.9 18.26zm-22.15-.53-8.61-11.47a52.08 52.08 0 0 1 8.57-6.26zm-11.68-8.47 11.64 15.56v18.33l-20.06-16.41a2 2 0 0 0 -.67-.37 36.31 36.31 0 0 1 9.09-17.11zm-9.77 23.48c0-.51 0-1 .06-1.53l21.35 17.48v16.78c-13.48-7.9-21.41-19.94-21.41-32.73zm-43.74 40.18h-.08a22.86 22.86 0 0 1 -3.21-10.31l11.37 1.65 5.26 5.22 1.91 1.91zm28.73 5.9-2.39-2.41 2.76-9.39a29.57 29.57 0 0 1 -.37 11.8zm-25.69-19.63-6.33-.93a34.73 34.73 0 0 1 .7-4.72zm23.59 1-3.77 12.77-5.6-5.61 1.65-14.82a19.14 19.14 0 0 1 7.72 7.62zm-19.22-10.45a25.41 25.41 0 0 1 7.38 1.06l-1.45 12.68-12.9-12.95a32.4 32.4 0 0 1 6.97-.79zm-4.25 27.16 16-1.6 6.55 6.55a31.76 31.76 0 0 1 -7 .79c-6.22 0-11.58-1.99-15.55-5.74z" fill="#5cb46d"/></svg>