<svg viewBox="0 0 121.02 104.98" xmlns="http://www.w3.org/2000/svg"><g fill="#1e6ca7"><path d="m24.3 37.09a1.77 1.77 0 0 0 1.77 1.76h3.06a1.76 1.76 0 0 0 1.76-1.76v-2.52h-6.59z"/><path d="m27.6 18a6.83 6.83 0 0 0 -5.89 10.28c.34.67 2.62 3.41 2.59 5v.11h6.59v-.14c0-1.29 1.15-2.69 2.62-5a6.83 6.83 0 0 0 -5.91-10.25"/><path d="m26.07 40a2.74 2.74 0 0 1 -.64-.08 1.78 1.78 0 0 0 1.75 1.45h.82a1.78 1.78 0 0 0 1.77-1.37 2.74 2.74 0 0 1 -.64.08z"/><path d="m27.6 16.07a.59.59 0 0 0 .59-.59v-1.91a.6.6 0 0 0 -1.19 0v1.91a.59.59 0 0 0 .6.59"/><path d="m35.6 16.7-1.35 1.35a.59.59 0 0 0 .83.84l1.36-1.35a.59.59 0 0 0 -.84-.84"/><path d="m39.46 25h-1.91a.6.6 0 0 0 0 1.19h1.91a.6.6 0 0 0 0-1.19"/><path d="m17.5 24.84h-1.91a.6.6 0 0 0 0 1.19h1.91a.6.6 0 1 0 0-1.19"/><path d="m20.91 18-1.35-1.4a.59.59 0 0 0 -.84.84l1.35 1.35a.59.59 0 0 0 .84-.84"/><path d="m92.84 32.43a7.83 7.83 0 0 1 7.82 7.83h4.7a12.53 12.53 0 1 0 -25 0h4.64a7.84 7.84 0 0 1 7.84-7.83m0 43.32c6.91 0 12.52-6.19 12.52-13.82v-14.93h-25v14.93c0 7.63 5.61 13.82 12.53 13.82m24.81-14.81a3.22 3.22 0 0 0 -3.31 3.13 17.71 17.71 0 0 1 -6.39 13.06 22.93 22.93 0 0 1 -30.33 0 17.64 17.64 0 0 1 -6.39-13.06 3.32 3.32 0 0 0 -6.63 0c.11 13.69 13.11 25 28.19 25.06s28.06-11.37 28.16-25.06a3.22 3.22 0 0 0 -3.32-3.13m-33.2 44.06h16.71v-10.46h-16.71z"/></g><path d="m59.86 59.85-21.4-5.73a28 28 0 0 1 -30.25-6.22 28.07 28.07 0 1 1 45.91-9.44zm-21.53-7.85 18.67 5-5-18.67.13-.32a26.07 26.07 0 1 0 -14.13 14.14z" fill="#0a72b8"/></svg>