<svg viewBox="0 0 121.02 105.66" xmlns="http://www.w3.org/2000/svg"><g fill="#1e6ca7"><path d="m92.84 33.11a7.83 7.83 0 0 1 7.82 7.83h4.7a12.53 12.53 0 1 0 -25 0h4.64a7.84 7.84 0 0 1 7.84-7.83m0 43.32c6.91 0 12.52-6.19 12.52-13.82v-14.89h-25v14.89c0 7.63 5.61 13.82 12.53 13.82m24.81-14.81a3.22 3.22 0 0 0 -3.31 3.13 17.73 17.73 0 0 1 -6.39 13.06 22.93 22.93 0 0 1 -30.33 0 17.66 17.66 0 0 1 -6.39-13.06 3.32 3.32 0 0 0 -6.63 0c.11 13.69 13.11 25 28.19 25.06s28.06-11.37 28.16-25.06a3.22 3.22 0 0 0 -3.32-3.13m-33.22 44h16.71v-10.4h-16.69z"/><path d="m27.78 13a.79.79 0 0 0 -.67 0l-19.53 9.22 1.11.52 18.49 8.74a.79.79 0 0 0 .67 0l17.15-8.13a1.31 1.31 0 0 0 .57-1.55 1.14 1.14 0 0 0 -.57-.72z"/><path d="m16.16 29.07c-.25-.12-.52 0-.61.36a.66.66 0 0 0 0 .21v7c0 3 5.31 5.5 11.93 5.5 4.48 0 8.34-1.14 10.41-2.79a3.65 3.65 0 0 0 1.51-2.75v-7.06a.55.55 0 0 0 -.48-.6.33.33 0 0 0 -.17 0l-11.14 5.31a.38.38 0 0 1 -.33 0zm30.61-5.23a.6.6 0 0 0 -.32.5l-.24 2.41-.82 7.33a.58.58 0 0 0 .4.68h2.21a.55.55 0 0 0 .47-.6v-.09l-1.09-9.75c0-.33-.27-.56-.53-.51z"/></g><path d="m59.86 59.85-21.4-5.73a28 28 0 0 1 -30.25-6.22 28.07 28.07 0 1 1 45.91-9.44zm-21.53-7.85 18.67 5-5-18.7.13-.32a26.08 26.08 0 1 0 -14.13 14.16z" fill="#0a72b8"/></svg>