<svg viewBox="0 0 121.02 109.96" xmlns="http://www.w3.org/2000/svg"><g fill="#1e6ca7"><path d="m92.84 37.41a7.83 7.83 0 0 1 7.82 7.83h4.7a12.53 12.53 0 1 0 -25 0h4.64a7.84 7.84 0 0 1 7.84-7.83m0 43.32c6.91 0 12.52-6.19 12.52-13.82v-14.91h-25v14.91c0 7.63 5.61 13.82 12.53 13.82m24.81-14.81a3.22 3.22 0 0 0 -3.31 3.14 17.71 17.71 0 0 1 -6.39 13 22.9 22.9 0 0 1 -30.33 0 17.64 17.64 0 0 1 -6.39-13 3.32 3.32 0 0 0 -6.63 0c.11 13.68 13.11 25 28.19 25s28.06-11.37 28.18-25a3.23 3.23 0 0 0 -3.32-3.14m-33.22 44.08h16.71v-10.47h-16.71z"/><path d="m27.22 33.87-.7 1.68 1.41 2.76-1.73 1.69-2.82-1.3-1.68.69-.85 2.61-.11.35h-2.43l-1.06-2.95-1.68-.7-2.76 1.41-1.72-1.72 1.33-2.83-.69-1.68-3-1v-2.39l3-1.06.69-1.67-1.24-2.45-.18-.31 1.72-1.72 2.83 1.33 1.67-.69.85-2.6.13-.32h2.43l1.06 2.95 1.67.69 2.77-1.4 1.72 1.72-1.33 2.82.69 1.68 2.95 1v2.43zm-7.75-6.82a4.61 4.61 0 1 0 4.59 4.6 4.6 4.6 0 0 0 -4.59-4.6" fill-rule="evenodd"/><path d="m44 23.18-.7 1.68 1.41 2.76-1.71 1.73-2.87-1.35-1.68.69-.85 2.61-.1.34h-2.44l-1.06-2.93-1.67-.71-2.76 1.4-1.73-1.7 1.34-2.83-.7-1.68-2.94-1v-2.39l2.94-1.06.69-1.67-1.24-2.45-.16-.32 1.72-1.72 2.83 1.34 1.68-.7.85-2.6.1-.35h2.44l1 2.94 1.68.69 2.76-1.4 1.73 1.72-1.34 2.82.78 1.69 2.95 1v2.43zm-7.75-6.82a4.61 4.61 0 1 0 4.6 4.6 4.6 4.6 0 0 0 -4.6-4.6" fill-rule="evenodd"/></g><path d="m59.86 59.85-21.4-5.73a28 28 0 0 1 -30.25-6.22 28.07 28.07 0 1 1 45.91-9.44zm-21.53-7.85 18.67 5-5-18.7.13-.32a26.08 26.08 0 1 0 -14.13 14.16z" fill="#0a72b8"/></svg>