<svg viewBox="0 0 124.96 109.98" xmlns="http://www.w3.org/2000/svg"><path d="m96.78 37.42a7.84 7.84 0 0 1 7.83 7.83h4.7a12.53 12.53 0 0 0 -25.06 0h4.75a7.84 7.84 0 0 1 7.83-7.83m0 43.33c6.92 0 12.53-6.19 12.53-13.83v-14.92h-25.11v14.92c0 7.64 5.61 13.83 12.53 13.83m24.87-14.81a3.23 3.23 0 0 0 -3.32 3.13 17.64 17.64 0 0 1 -6.39 13.05 22.9 22.9 0 0 1 -30.33 0 17.71 17.71 0 0 1 -6.39-13.05 3.32 3.32 0 0 0 -6.63 0c.12 13.69 13.11 25 28.19 25.05s28.06-11.36 28.22-25.05a3.22 3.22 0 0 0 -3.31-3.13m-33.26 44.06h16.7v-10.46h-16.7z" fill="#1e6ca7"/><path d="m28.35 36.5-9.67 5.09 1.84-10.78-7.82-7.63 10.82-1.58 4.83-9.8 4.84 9.8 10.82 1.58-7.83 7.63 1.85 10.78z" fill="#1e6ca7" fill-rule="evenodd"/><path d="m59.85 59.87-21.39-5.74a28 28 0 0 1 -30.25-6.21 28.07 28.07 0 1 1 45.91-9.45zm-21.52-7.87 18.67 5-5-18.7.13-.31a26.07 26.07 0 1 0 -14.13 14.17z" fill="#0a72b8"/></svg>