<svg xmlns="http://www.w3.org/2000/svg" viewBox="0 0 92.08 86.45"><defs><style>.cls-1{fill:#292929;}.cls-2{opacity:0.5;}.cls-3{fill:#d3a821;}.cls-4{fill:#56ae31;}.cls-5{fill:#548fc5;}</style></defs><g id="Capa_2" data-name="Capa 2"><g id="wireframe"><path class="cls-1" d="M3.42,23.47l8,3.79c-.17.37-.25.54-.41.91L5.41,25.73a30.76,30.76,0,0,0,4,6.82c0,.1,0,.15-.07.26a35.75,35.75,0,0,0-6.82,1.63A45.38,45.38,0,0,0,8.41,37.8c-.05.45-.07.68-.1,1.13A45.73,45.73,0,0,1,0,34.24c0-.1,0-.14,0-.24a37.12,37.12,0,0,1,7.81-2,32.12,32.12,0,0,1-4.52-8.37l.09-.19"/><path class="cls-1" d="M7.1,21.43c.23-.39.35-.59.59-1,2,1.8,3,2.67,5,4.34-.2.33-.29.5-.48.85C10.12,24,9.1,23.18,7.1,21.43M5.3,19.21a1.27,1.27,0,0,1,.55-.51.58.58,0,0,1,.56,0,.56.56,0,0,1,.24.51,1.35,1.35,0,0,1-.21.7,1.27,1.27,0,0,1-.53.5.61.61,0,0,1-.56,0,.58.58,0,0,1-.26-.5,1.25,1.25,0,0,1,.21-.72"/><path class="cls-1" d="M14.33,12.44l.86-.77c1.14,1.94,1.73,2.9,3,4.77a7.1,7.1,0,0,1,.91,1.72A3.36,3.36,0,0,1,19,20a5.21,5.21,0,0,1-1.07,1.9,5.2,5.2,0,0,1-1.64,1.35,3.39,3.39,0,0,1-1.83.34c.1-.35.16-.52.27-.87a3.12,3.12,0,0,0,2.6-1.32,4.13,4.13,0,0,0,.84-1.48,2.37,2.37,0,0,0,.07-1.36,5.86,5.86,0,0,0-.73-1.29L17.33,17a5.06,5.06,0,0,1-1.27,3,4.37,4.37,0,0,1-2.26,1.53,2.77,2.77,0,0,1-2.35-.39,2.85,2.85,0,0,1-1.12-1.58,4.37,4.37,0,0,1,0-2.35A5.58,5.58,0,0,1,11.58,15a4.64,4.64,0,0,1,1.58-1.19A3.7,3.7,0,0,1,15,13.51c-.27-.42-.4-.64-.67-1.07m-2,2.92a4.87,4.87,0,0,0-1.07,1.86A3.09,3.09,0,0,0,11.19,19a2.35,2.35,0,0,0,.91,1.31,2,2,0,0,0,1.7.3,3.44,3.44,0,0,0,1.72-1.19,4.33,4.33,0,0,0,1.11-2.41,2.57,2.57,0,0,0-.69-2.2,1.79,1.79,0,0,0-1.8-.57,3.53,3.53,0,0,0-1.81,1.08"/><path class="cls-1" d="M16.9,10.26c.37-.29.56-.43.94-.71.15.3.22.45.36.75a3.1,3.1,0,0,1,.5-1.25,3.46,3.46,0,0,1,1-1,3.26,3.26,0,0,1,1-.41c0,.37,0,.56-.06.94a2.63,2.63,0,0,0-.68.28,2.47,2.47,0,0,0-.82.93,2.24,2.24,0,0,0-.25,1.28A5.58,5.58,0,0,0,19.54,13c.51,1,.78,1.5,1.32,2.48l-.76.61c-1.35-2.28-2-3.44-3.2-5.81"/><path class="cls-1" d="M30.9,10.09c-.39.12-.58.19-1,.33l-.18-1a5.48,5.48,0,0,1-2.45,2.25,4.39,4.39,0,0,1-2.7.43,2.88,2.88,0,0,1-2-1.37,3.07,3.07,0,0,1-.06-3.06,5.39,5.39,0,0,1,2.81-2.64,4.92,4.92,0,0,1,2-.45,3.19,3.19,0,0,1,1.73.52c-.08-.5-.12-.75-.19-1.25l1.19-.37c.25,2.65.42,4,.83,6.59m-3.81.85a4.77,4.77,0,0,0,1.49-1,3.53,3.53,0,0,0,.84-1.49,2.78,2.78,0,0,0,0-1.64A1.91,1.91,0,0,0,28,5.49a3.58,3.58,0,0,0-2.38.27,4.23,4.23,0,0,0-2.19,2,2.5,2.5,0,0,0,0,2.42A2.13,2.13,0,0,0,25,11.28a3.4,3.4,0,0,0,2.09-.34"/><path class="cls-1" d="M32.56,2.87c.44-.11.67-.15,1.12-.24,0,2.66.06,4,.23,6.63l-1,.23c-.24-2.64-.31-4-.38-6.62M33,0a1.29,1.29,0,0,1,.76.06.55.55,0,0,1,.38.41A.59.59,0,0,1,33.9,1a1.36,1.36,0,0,1-.67.32,1.22,1.22,0,0,1-.74-.05A.56.56,0,0,1,32.1.9a.56.56,0,0,1,.19-.53A1.22,1.22,0,0,1,33,0"/><path class="cls-1" d="M36.32,2.22l1.17-.13c0,.41-.05.62-.09,1a4.64,4.64,0,0,1,3.33-1.36,4,4,0,0,1,2.44.67A1.89,1.89,0,0,1,44,4.16a9,9,0,0,1-.29,1.39c-.31,1.18-.45,1.77-.72,3-.42,0-.62,0-1,0,.23-1.2.36-1.79.63-3a10.76,10.76,0,0,0,.24-1.41A1.27,1.27,0,0,0,42.22,3a2.61,2.61,0,0,0-1.6-.43,4.15,4.15,0,0,0-1.78.4,2.72,2.72,0,0,0-1.18,1,4.18,4.18,0,0,0-.47,1.91c-.07,1.14-.1,1.72-.14,2.86l-1,.14c0-2.65.08-4,.27-6.63"/><g class="cls-2"><path class="cls-3" d="M63.4,41.15a12.57,12.57,0,1,1,0-17.78,12.57,12.57,0,0,1,0,17.78"/></g><g class="cls-2"><path class="cls-4" d="M48.31,43.85a12.57,12.57,0,1,1,0-17.78,12.57,12.57,0,0,1,0,17.78"/></g><g class="cls-2"><path class="cls-5" d="M42.52,38.05a12.58,12.58,0,1,0,17.78,0,12.58,12.58,0,0,0-17.78,0"/></g><path class="cls-1" d="M83.15,36.38l-.27,1.85a3,3,0,0,0-2-1,1.25,1.25,0,0,0-1,.56,5.36,5.36,0,0,0-.67,2.29L79,41.7h3.18l-.21,1.7h-3.2l-1.8,13.42H75L76.85,43.4H75l.21-1.7h1.84l.18-1.33A12.1,12.1,0,0,1,78,37.23a3.06,3.06,0,0,1,2.77-1.75A4,4,0,0,1,83.15,36.38Z"/><path class="cls-1" d="M92.08,36.38l-.26,1.85a3,3,0,0,0-2-1,1.26,1.26,0,0,0-1,.56,5.51,5.51,0,0,0-.67,2.29L87.9,41.7h3.18l-.21,1.7H87.68L85.87,56.82H84L85.78,43.4H84l.2-1.7H86l.18-1.33a13,13,0,0,1,.72-3.14A3,3,0,0,1,88,36a2.94,2.94,0,0,1,1.64-.48A4,4,0,0,1,92.08,36.38Z"/><path class="cls-1" d="M55,17.34a26.53,26.53,0,0,0-14-.79A27.85,27.85,0,0,0,28.6,22.9a16,16,0,0,0-3.94,5.59,13.49,13.49,0,0,0-.86,3.3,18,18,0,0,0,0,3.44c.17,2.32.88,4.6.85,7.2a5.7,5.7,0,0,1-1.41,3.72c-.87,1-1.7,1.7-2.52,2.58s-1.61,1.71-2.36,2.62l-1.11,1.38A2.4,2.4,0,0,0,16.66,54a2.88,2.88,0,0,0,.91,2.58c.36.27.58.29,1.29.27a2.76,2.76,0,0,1,1.15.24,3.07,3.07,0,0,1,.92.7A5.15,5.15,0,0,1,22,61.68a4,4,0,0,1-.73,2A2.26,2.26,0,0,0,20.74,65a2.62,2.62,0,0,0,.35,1.41,10.63,10.63,0,0,1,.67,1.77,9.18,9.18,0,0,1,.29,1.9,16.08,16.08,0,0,1-.14,1.84c0,2,.9,4.74,2.9,5.36a13.73,13.73,0,0,0,3.43.1,27.54,27.54,0,0,1,3.63.23,12.34,12.34,0,0,1,6.69,2.69,13,13,0,0,1,3.59,6.18,13.32,13.32,0,0,0-3.85-5.88,11.72,11.72,0,0,0-6.52-2.27,27.55,27.55,0,0,0-3.52-.11,14.47,14.47,0,0,1-3.71,0,4.76,4.76,0,0,1-2.87-2.61A9.22,9.22,0,0,1,21,73.77a5.91,5.91,0,0,1-.26-1.94,13.56,13.56,0,0,0,.09-1.73,7.69,7.69,0,0,0-.3-1.62A9.24,9.24,0,0,0,20,66.91a4,4,0,0,1-.49-2,3.63,3.63,0,0,1,.72-2,2.66,2.66,0,0,0,.5-1.37,3.87,3.87,0,0,0-.75-2.85,1.34,1.34,0,0,0-1.09-.48,5.31,5.31,0,0,1-1,0,2.65,2.65,0,0,1-1.09-.49,4.23,4.23,0,0,1-1.48-3.86,3.86,3.86,0,0,1,.85-2l1.12-1.42c.76-.94,1.57-1.85,2.41-2.72S21.4,46,22.15,45.18a4.21,4.21,0,0,0,1.07-2.82c.07-2.19-.6-4.58-.77-7a18.42,18.42,0,0,1,.06-3.71,14.38,14.38,0,0,1,1-3.61,16,16,0,0,1,4.36-5.95,28.53,28.53,0,0,1,13-6.22A25.86,25.86,0,0,1,55,17.34"/></g></g></svg>