<svg viewBox="0 0 64.78 62.14" xmlns="http://www.w3.org/2000/svg"><path d="m58.87 27.65a5.88 5.88 0 0 0 -5.59 4l-9.17-.93a11.19 11.19 0 0 0 -4.5-8.86l6.14-10.41a6.44 6.44 0 0 0 1.86.32 5.91 5.91 0 1 0 -5.9-5.91 5.78 5.78 0 0 0 1.86 4.28l-6.13 10.4a11.4 11.4 0 0 0 -4.66-1 11.53 11.53 0 0 0 -7.31 2.64l-5.28-5a5.67 5.67 0 0 0 .86-3 5.91 5.91 0 1 0 -5.9 5.91 6.3 6.3 0 0 0 3.34-1l5.28 5a11.36 11.36 0 0 0 -2.26 6.75 10.89 10.89 0 0 0 .24 2.33l-10.75 3.65a5.89 5.89 0 0 0 -11 3.02 5.91 5.91 0 1 0 11.81 0v-.62l10.79-3.65a11.19 11.19 0 0 0 10.25 6.53 6.16 6.16 0 0 0 1.25-.1l2 8.93a5.76 5.76 0 0 0 -3.34 5.28 5.9 5.9 0 1 0 5.9-5.9h-.06l-2-8.93a11.46 11.46 0 0 0 7.3-8.31l9.17.93a5.81 5.81 0 0 0 5.82 5.2 5.79 5.79 0 1 0 0-11.57" fill="#fff"/></svg>