<svg viewBox="0 0 120.6 101.07" xmlns="http://www.w3.org/2000/svg"><g fill="#fff"><path d="m5.72 17.64c1.31 1.1 2.3 2 2.89 2.55s1.45 1.46 2.58 2.66 2 2.08 2.58 2.65c.16.15.31.16.54-.09l1.06-1.14c.47-.5.86-.88 1.1-1.09s.59-.52 1.09-.9l1.11-.87a.39.39 0 0 0 .1-.08.36.36 0 0 0 0-.5c-.37-.46-.94-1.14-1.71-2s-1.36-1.56-1.71-2c-.14-.17-.15-.3 0-.38s3 0 7.65 1.52a.82.82 0 0 0 .64 0l1.12-.71c.49-.32.87-.54 1.11-.67s.63-.32 1.13-.53l1.13-.5c.27-.13.36-.27.29-.42l-3.1-6.85c-.36-.79-.85-2-1.46-3.6s-1.09-2.83-1.44-3.62a.14.14 0 0 0 0-.06.28.28 0 0 0 -.42-.12c-.43.2-1.08.52-1.94 1s-1.53.81-1.91 1-1 .53-1.79 1-1.37.79-1.76 1c-.19.13-.21.31-.05.56.49.73 1 1.43 1.59 2.11a21.87 21.87 0 0 1 1.58 2.11c.23.37.32.6.26.7-2.3-.46-4.09-.7-5.28-.89-2.17-.29-3.44-.36-3.73-.4a1.25 1.25 0 0 0 -.85.07 13.6 13.6 0 0 0 -1.33 1.3l-1.32 1.41c-1.21 1.29-2 2.19-2.33 2.54s-.44.59-.32.71c.61.58 1.59 1.42 2.9 2.53z"/><path d="m31.64 12.85a9.92 9.92 0 0 0 5.27-.14c2.17-.52 3.65-1.14 4.46-2.07a.34.34 0 0 0 .13-.28 3.2 3.2 0 0 0 -.5-.53l-.58-.54-.8-1a.4.4 0 0 0 -.38-.14 6.52 6.52 0 0 0 -1.08.49 7.26 7.26 0 0 1 -1.5.61 4.64 4.64 0 0 1 -1.17.11 1.32 1.32 0 0 1 -1-.35c1.18-.46 1.78-.66 3-1 2-.64 3.21-.9 3.41-1 .55-.2.79-.68.7-1.45a4.67 4.67 0 0 0 -2.6-3.63 7.27 7.27 0 0 0 -5.39-.58 8.1 8.1 0 0 0 -5 3.37 5 5 0 0 0 -.49 4.83 5.36 5.36 0 0 0 3.52 3.3zm2.15-7.32a1.73 1.73 0 0 1 .83-.53 1.14 1.14 0 0 1 .81.12.89.89 0 0 1 .47.55c0 .07-.14.15-.45.25-.09 0-.33.11-.68.25s-.45.17-.68.24-.48 0-.52-.13a.79.79 0 0 1 .22-.75z"/><path d="m43.79 8.66c.59 1.76 1.92 2.54 4 2.54a5.64 5.64 0 0 0 2.38-.61 6.5 6.5 0 0 0 1.16-.6c.11 0 .16.25.17.7s.08.7.24.7.73 0 1.32.07a11.9 11.9 0 0 1 1.34.1c.27 0 .68.1 1.21.21l1.2.25a1.41 1.41 0 0 0 .54 0 .53.53 0 0 0 .28-.41c.11-.51.25-1.28.41-2.33s.3-1.83.4-2.35.35-1.46.67-2.63.56-2 .68-2.63c.08-.32-.11-.52-.55-.61a49.2 49.2 0 0 0 -5.63-.8 2.63 2.63 0 0 0 -1.08 0c-.2.09-.32.33-.35.72l-.4 5.27c0 .41-.3.6-.81.57s-.93-1-.85-3c0-.38.07-.94.18-1.69s.17-1.32.19-1.68-.22-.45-.58-.45-.91 0-1.57 0h-1.56-1.37c-.61 0-1.06 0-1.36 0a.75.75 0 0 0 -.72.52 12.16 12.16 0 0 0 -.21 4.49 16.24 16.24 0 0 0 .67 3.65z"/><path d="m59.5 12.12c-.08.31 0 .51.4.6l1.23.34c.55.15 1 .29 1.22.36s.64.23 1.14.43l1.13.44a.21.21 0 0 0 .11 0 .5.5 0 0 0 .59-.39c.16-.41.38-1 .65-1.89s.49-1.5.65-1.89.54-.47 1.16-.22l.54.26.7.34c.79.35 1.26.34 1.39.09l.5-1.16c.21-.51.38-.89.5-1.15s.35-.64.63-1.12.52-.86.64-1.11 0-.36-.23-.48a6.06 6.06 0 0 0 -2.81-.57c-1 0-1.45.07-1.37.11-.14-.05-.13-.32 0-.8s.11-.76-.09-.83a28.61 28.61 0 0 0 -3.32-.64c-.23 0-.8-.16-1.73-.35a8.69 8.69 0 0 0 -1.6-.23.29.29 0 0 0 -.32.22.81.81 0 0 0 0 .22 12 12 0 0 1 -.41 4.3z"/><path d="m71.34 11.15a5.52 5.52 0 0 0 -.13 4.65 8.51 8.51 0 0 0 3.25 4 8.67 8.67 0 0 0 5 1.76 5.71 5.71 0 0 0 4.44-1.76 4.84 4.84 0 0 0 1.18-4.72 8.86 8.86 0 0 0 -3.78-5.08 8.4 8.4 0 0 0 -6-1.7 5.05 5.05 0 0 0 -3.96 2.85zm5.44 3a.94.94 0 0 1 .74-.42 1.65 1.65 0 0 1 1.58 1.12.91.91 0 0 1 -.13.83.94.94 0 0 1 -.75.39 1.48 1.48 0 0 1 -1-.3 1.43 1.43 0 0 1 -.59-.79.94.94 0 0 1 .15-.84z"/><path d="m5.64 78.58c1.6.91 3.09.22 2.81-1.55-1.17-7.81-.45-13.32 2.77-22.57.22-.64 8.4 29.91 21.91 41.48a17.71 17.71 0 0 1 -6.57 1.06c-.72 0-1.68-.29-1.86.76s.82 1.26 1.63 1.48a17.93 17.93 0 0 0 8.94-.08c3.54-.81 6.73-2.3 8.73-5.46s3.49-6.46 5.2-9.72c.3-.55.42-1.2-.21-1.56s-1.12.19-1.45.64c-.64.88-1.11 1.89-1.81 2.72-.88 1.06-1.87 1.41-2.83 0a39.8 39.8 0 0 0 -2.67-3.66 60.84 60.84 0 0 1 -13.36-28.93c-1.05-5.81-1.25-18.89-.62-19.34a58.14 58.14 0 0 1 10.8-6.53c3.16-2 5-2.26 7.05-3.31 1.33-.7.07-3.27-1-3.81a11.61 11.61 0 0 0 -5.56-1.39 19.25 19.25 0 0 0 -4.54.42 55.79 55.79 0 0 0 -8 2.94 56.18 56.18 0 0 0 -6.52 3.64 38.31 38.31 0 0 0 -12.06 12.09l-.31.51c-.73 1.17-1.39 2.37-2 3.6a34.75 34.75 0 0 0 -4.11 15.93v.67a61.34 61.34 0 0 0 1.45 12.53 13.64 13.64 0 0 0 4.19 7.44z"/><path d="m57.18 19.39c-1.68 0-8.11.68-9.5 1.48a2.11 2.11 0 0 0 -1.07 2.35c.14 1 .92 1.33 1.82 1.37 3.39.17 6.1 2.27 9.21 3.2 1 .31 1.69 1 1 2.07-1.22 2.05-1.62 4.4-2.38 6.62-3.18 9.31-4.79 18.84-3.86 28.72.12 1.32-.12 2.68-.06 4 .13 2.88-.51 5.9 1.58 8.43.75.91.52 1.69-.53 2.25-.57.31-1.37.61-1 1.48s1.13.6 1.79.6a6.84 6.84 0 0 0 2.92-.68c7-3.35 9.87-9.49 11-16.65.9-5.7 1.36-11.47 2.27-17.17a26.48 26.48 0 0 1 2.67-7.55c.8-1.58 1.83-2.2 3.32-.75a14.23 14.23 0 0 1 1.64 1.63 42.62 42.62 0 0 1 6.88 16c.84 3.71-.75 6.52-3 9.12-.64.74-1.42 1.4-.8 2.34s1.64.71 2.51.36a12 12 0 0 0 5.49-4.61c4.92-7.22 5.2-14.75 1.92-22.5a40.51 40.51 0 0 0 -8-11.47c-6.79-7.31-15.43-11.21-25.82-10.64z"/><path d="m78.29 75.94q-.47-.14-2.16-.48a17.58 17.58 0 0 0 -2.13-.36c-.16 0-.26.13-.3.38s-.09.37-.15.37l-1-.35a5.08 5.08 0 0 0 -1.54-.34 4.71 4.71 0 0 0 -3.81 1.39 6.25 6.25 0 0 0 -1.41 4.21 5.71 5.71 0 0 0 1.24 3.71 4.23 4.23 0 0 0 3.45 1.65 3.81 3.81 0 0 0 1.65-.51 7.31 7.31 0 0 0 .93-.52c.09 0 .14.15.15.44a.42.42 0 0 0 .47.43h1.07s.83 0 1.07 0h1.94a.43.43 0 0 0 .46-.46l-.12-1.65c-.1-1.57-.1-2.7-.1-3.47a22.29 22.29 0 0 1 .47-3.95c0-.13 0-.22 0-.27s-.05-.16-.18-.22zm-5.45 5.26a1 1 0 0 1 -.7.28 1.07 1.07 0 0 1 -.74-.27 1 1 0 0 1 0-1.41 1 1 0 0 1 .74-.28.86.86 0 0 1 1 1 .93.93 0 0 1 -.3.68z"/><path d="m85.59 71c0-.2-.11-.29-.33-.29h-1.26-1.27-1.27-1.27a.55.55 0 0 0 -.21 0c-.07 0-.1.13-.1.28 0 .77.05 1.92.15 3.47s.16 2.7.16 3.47 0 2 0 3.6 0 2.79 0 3.59v.49a.32.32 0 0 0 .36.24h1.12s.88 0 1.13 0 .62 0 1.12 0 .88 0 1.13 0a.32.32 0 0 0 .35-.24s0-.18 0-.49c0-.8 0-2 0-3.59s0-2.8 0-3.6q0-3.24.31-6.68a2 2 0 0 0 -.12-.25z"/><path d="m88.49 76.51a5.68 5.68 0 0 0 -1.64 4.14 5.08 5.08 0 0 0 1.7 4.14 6.52 6.52 0 0 0 4.37 1.33c2 0 3.32-.39 4.12-1.16a.34.34 0 0 0 .14-.24 2.93 2.93 0 0 0 -.37-.58c-.27-.38-.4-.58-.4-.59-.24-.47-.41-.83-.52-1.07a.33.33 0 0 0 -.28-.2 6 6 0 0 0 -.93.27 4.4 4.4 0 0 1 -1.3.27 2.83 2.83 0 0 1 -.95-.16 1.11 1.11 0 0 1 -.71-.58l2.52-.29c1.7-.2 2.64-.31 2.8-.36.47-.11.7-.54.7-1.29a5.19 5.19 0 0 0 -1.52-3.72 4.93 4.93 0 0 0 -3.66-1.58 5.45 5.45 0 0 0 -4.07 1.67zm4.7 2.24a.92.92 0 0 1 .26.61c0 .07-.13.11-.38.13l-.55.08a4.61 4.61 0 0 1 -.55.05q-.36 0-.36-.24a.85.85 0 0 1 .32-.65 1.06 1.06 0 0 1 .7-.27.76.76 0 0 1 .56.29z"/><path d="m99.2 80.38v5a.41.41 0 0 0 .47.46h2.21 1 1c.31 0 .47-.18.47-.54v-5.14a.62.62 0 0 1 1.23 0v1.1s0 .86 0 1.1 0 .82 0 1.47 0 1.14 0 1.47.15.55.42.55h2.26 1.07 1.09c.26 0 .4-.14.4-.44v-7.75a2.22 2.22 0 0 0 -1.09-2 4 4 0 0 0 -2.25-.62 4.67 4.67 0 0 0 -2 .62 6.3 6.3 0 0 0 -1.11.63c-.08 0-.14-.24-.17-.71s-.13-.71-.27-.71a24.58 24.58 0 0 0 -2.56.43l-2.61.36a.27.27 0 0 0 -.18.27.88.88 0 0 0 0 .21 15.79 15.79 0 0 1 .62 4.24z"/><path d="m112.1 77.89v.74s0 .57 0 .73.17.33.5.34.51.16.51.46 0 1 0 1.73-.06 1.35-.06 1.73q0 2.4 3.69 2.4a6.68 6.68 0 0 0 3.2-.68 1.69 1.69 0 0 0 .47-.34 1 1 0 0 0 .1-.52 12.59 12.59 0 0 1 .1-1.37 12.76 12.76 0 0 0 .1-1.37c0-.08-.06-.12-.19-.12a4.78 4.78 0 0 1 -1.67-.21 1.25 1.25 0 0 1 -.89-1.27c0-.24.11-.35.32-.35s.52 0 .94 0h.93q.33 0 .33-.27c0-.23 0-.58 0-1s0-.81 0-1 0-.57.08-1a9.79 9.79 0 0 0 .07-1c0-.14-.08-.21-.26-.21h-1c-.46 0-.8 0-1 0a.29.29 0 0 1 -.32-.32c0-.25 0-.64.08-1.16s.07-.91.07-1.17-.09-.24-.3-.24a8 8 0 0 1 -1.13-.1l-1.14-.15a9.25 9.25 0 0 1 -1.16-.22 5.53 5.53 0 0 0 -1.07-.19c-.18 0-.28.35-.31 1 0-.16 0 .26 0 1.27v1.35c0 .19-.14.34-.44.43s-.43.22-.43.38 0 .45 0 .82-.12.69-.12.88z"/><path d="m57.25 91.29a5.91 5.91 0 0 0 -8.17.06 5.83 5.83 0 0 0 -1.56 4.17 5.29 5.29 0 0 0 1.63 4 5.6 5.6 0 0 0 4 1.57 5.48 5.48 0 0 0 4.07-1.61 6 6 0 0 0 0-8.17zm-3.35 4.8a.94.94 0 0 1 -.72.29 1 1 0 0 1 -.7-.29 1 1 0 0 1 -.28-.72 1 1 0 0 1 1.69-.72 1.05 1.05 0 0 1 0 1.44z"/><path d="m71.44 100.81a.94.94 0 0 0 .46-.07c.11-.06.16-.2.16-.43 0-.5 0-1.25-.06-2.26s-.06-1.76-.06-2.26 0-1.44.08-2.59.09-2 .09-2.59a.41.41 0 0 0 -.47-.46h-4a1.44 1.44 0 0 0 -.76.13.88.88 0 0 0 -.22.71v5a.53.53 0 0 1 -.6.59q-.78 0-.78-2.82c0-.36 0-.9.08-1.62s.08-1.26.08-1.61a.37.37 0 0 0 -.42-.41h-2.22-1c-.43 0-.75 0-1 0a.56.56 0 0 0 -.54.45 15.89 15.89 0 0 0 -.42 4.25 17.14 17.14 0 0 0 .28 3.46 3 3 0 0 0 3.32 2.58 4 4 0 0 0 2-.63 4.71 4.71 0 0 0 1-.64q.13 0 .18.66c0 .44.12.65.26.65s.64 0 1.16-.06.91-.06 1.17-.06.59 0 1.06 0z"/><path d="m78.54 91.46c-.1 0-.16-.24-.2-.71s-.12-.71-.26-.71-.87.15-2.34.44c-.15 0-.57.07-1.23.13a5.72 5.72 0 0 0 -1.13.17.27.27 0 0 0 -.19.28.88.88 0 0 0 0 .21 15.3 15.3 0 0 1 .47 4v5a.41.41 0 0 0 .46.47h2.21 1 1c.31 0 .46-.18.46-.55s0-1.06-.08-1.9-.07-1.49-.07-1.91.26-.6.77-.6h.47.59c.66 0 1-.16 1-.47s0-.67 0-1.2 0-.94 0-1.21 0-.67.06-1.22.07-.94.07-1.21-.1-.32-.29-.32a3.7 3.7 0 0 0 -2 .58c-.54.54-.83.73-.77.73z"/></g></svg>