<svg viewBox="0 0 125.7 82.76" xmlns="http://www.w3.org/2000/svg"><g fill="#1e6ca7"><path d="m124.9 68.25a3.39 3.39 0 0 0 0-4.38c-.54-.63-12.63-14.59-28.11-14.59s-27.57 14-28.11 14.59a3.39 3.39 0 0 0 0 4.38c.54.63 12.62 14.51 28.11 14.51s27.57-13.88 28.11-14.51m-39.84-2.15a11.73 11.73 0 1 1 11.73 11.73 11.76 11.76 0 0 1 -11.73-11.73"/><path d="m96.79 59a6.78 6.78 0 0 0 -1.88.27 3.24 3.24 0 0 1 .72 2.06 3.5 3.5 0 0 1 -3.49 3.49 3.4 3.4 0 0 1 -2.07-.72 7.22 7.22 0 0 0 -.26 1.9 7 7 0 1 0 7-7"/><path d="m96.79 42.47a3.4 3.4 0 0 0 3.4-3.4v-9.4a3.4 3.4 0 1 0 -6.8 0v9.49a3.38 3.38 0 0 0 3.4 3.31"/><path d="m111.83 45.43a3.48 3.48 0 0 0 1.25.27 3.42 3.42 0 0 0 3.13-2.06l3.58-8.64a3.35 3.35 0 1 0 -6.17-2.59l-3.62 8.59a3.22 3.22 0 0 0 1.79 4.39"/><path d="m77.36 43.64a3.29 3.29 0 0 0 3.14 2 2.86 2.86 0 0 0 1.25-.26 3.36 3.36 0 0 0 1.79-4.38l-3.54-8.64a3.35 3.35 0 0 0 -6.22 2.64z"/><path d="m42.8 20.49a1.56 1.56 0 0 0 -1.25-.63h-20.8l-1-4.12a1.55 1.55 0 0 0 -1.55-1.21h-4.81a1.58 1.58 0 0 0 -1.58 1.58 1.64 1.64 0 0 0 1.58 1.61h3.61l2.93 12.59a5.79 5.79 0 0 0 5.64 4.49h9.72a5.77 5.77 0 0 0 5.6-4.35l2.21-8.58a1.73 1.73 0 0 0 -.29-1.38"/><path d="m25.06 36.41a2.81 2.81 0 1 1 -2.8 2.8 2.8 2.8 0 0 1 2.8-2.8"/><path d="m35.51 36.41a2.81 2.81 0 1 1 -2.8 2.8 2.8 2.8 0 0 1 2.8-2.8"/></g><path d="m59.85 59.87-21.39-5.74a28 28 0 0 1 -30.25-6.21 28.07 28.07 0 1 1 45.91-9.45zm-21.52-7.87 18.67 5-5-18.7.13-.31a26.07 26.07 0 1 0 -42.51 8.51 26 26 0 0 0 28.38 5.66z" fill="#0a72b8"/></svg>