<svg viewBox="0 0 125.7 83.52" xmlns="http://www.w3.org/2000/svg"><g fill="#1e6ca7"><path d="m124.9 69a3.4 3.4 0 0 0 0-4.39c-.54-.61-12.63-14.61-28.11-14.61s-27.57 14-28.11 14.63a3.4 3.4 0 0 0 0 4.39c.54.62 12.62 14.5 28.11 14.5s27.57-13.88 28.11-14.52m-39.84-2.13a11.73 11.73 0 1 1 11.73 11.72 11.77 11.77 0 0 1 -11.73-11.72"/><path d="m96.79 59.8a6.78 6.78 0 0 0 -1.88.27 3.22 3.22 0 0 1 .72 2.06 3.51 3.51 0 0 1 -3.49 3.49 3.4 3.4 0 0 1 -2.07-.72 7.16 7.16 0 0 0 -.26 1.88 7 7 0 1 0 7-7"/><path d="m96.79 43.24a3.4 3.4 0 0 0 3.4-3.41v-9.39a3.4 3.4 0 1 0 -6.8 0v9.49a3.38 3.38 0 0 0 3.4 3.31"/><path d="m111.83 46.19a3.48 3.48 0 0 0 1.25.27 3.42 3.42 0 0 0 3.13-2.06l3.58-8.68a3.35 3.35 0 1 0 -6.17-2.6l-3.62 8.68a3.22 3.22 0 0 0 1.79 4.39"/><path d="m77.36 44.4a3.3 3.3 0 0 0 3.14 2.06 2.86 2.86 0 0 0 1.25-.27 3.36 3.36 0 0 0 1.79-4.39l-3.54-8.68a3.35 3.35 0 0 0 -6.18 2.6z"/><path d="m27 17.06a11.72 11.72 0 0 0 -9.24 10.39 8.72 8.72 0 0 0 2.15 6.55l14.09-14.1 1.26-.42-.42 1.26-16.23 16.26-3.35 3.36 1.49 1.49 5.85-5.85a9.11 9.11 0 0 0 4.44.78 11.73 11.73 0 0 0 10.4-9.23l2.85-13.32z"/></g><path d="m59.85 59.85-21.39-5.73a28 28 0 0 1 -30.25-6.22 28.07 28.07 0 1 1 45.91-9.44zm-21.52-7.85 18.67 5-5-18.67.13-.32a26.07 26.07 0 1 0 -14.13 14.14z" fill="#0a72b8"/></svg>