<svg viewBox="0 0 125.7 89.33" xmlns="http://www.w3.org/2000/svg"><g fill="#1e6ca7"><path d="m124.9 74.83a3.4 3.4 0 0 0 0-4.39c-.54-.62-12.63-14.59-28.11-14.59s-27.57 14-28.11 14.59a3.4 3.4 0 0 0 0 4.39c.54.63 12.62 14.5 28.11 14.5s27.57-13.87 28.11-14.5m-39.84-2.15a11.73 11.73 0 1 1 11.73 11.73 11.76 11.76 0 0 1 -11.73-11.73"/><path d="m96.79 65.61a6.78 6.78 0 0 0 -1.88.27 3.24 3.24 0 0 1 .72 2.06 3.5 3.5 0 0 1 -3.49 3.49 3.4 3.4 0 0 1 -2.07-.72 7.22 7.22 0 0 0 -.26 1.88 7 7 0 1 0 7-7"/><path d="m96.79 49.05a3.4 3.4 0 0 0 3.4-3.4v-9.4a3.4 3.4 0 1 0 -6.8 0v9.49a3.38 3.38 0 0 0 3.4 3.31"/><path d="m111.83 52a3.48 3.48 0 0 0 1.25.27 3.42 3.42 0 0 0 3.13-2.06l3.58-8.69a3.35 3.35 0 1 0 -6.17-2.59l-3.62 8.69a3.22 3.22 0 0 0 1.83 4.38"/><path d="m77.36 50.22a3.3 3.3 0 0 0 3.14 2.06 2.86 2.86 0 0 0 1.25-.28 3.36 3.36 0 0 0 1.79-4.39l-3.54-8.67a3.35 3.35 0 0 0 -6.18 2.59z"/><path d="m42.78 25.11a6.69 6.69 0 0 1 -4 12 6.55 6.55 0 0 1 -4.53-1.81 7.68 7.68 0 0 1 -11.16-1.3 6.51 6.51 0 0 1 -2.42.46 6.67 6.67 0 0 1 0-13.34h.06a6.62 6.62 0 0 1 12.44-4 6.57 6.57 0 0 1 3.38-.94 6.65 6.65 0 0 1 6.62 6.67 6.81 6.81 0 0 1 -.39 2.27m-20.78 17.3a2.67 2.67 0 1 1 2.64-2.67 2.66 2.66 0 0 1 -2.64 2.67m-4.42 1.78a1.34 1.34 0 1 1 1.33-1.34 1.33 1.33 0 0 1 -1.33 1.34" fill-rule="evenodd"/></g><path d="m59.85 59.87-21.39-5.74a28 28 0 0 1 -30.25-6.21 28.07 28.07 0 1 1 45.91-9.45zm-21.52-7.87 18.67 5-5-18.7.13-.31a26.07 26.07 0 1 0 -42.51 8.51 26 26 0 0 0 28.38 5.66z" fill="#0a72b8"/></svg>