<svg xmlns="http://www.w3.org/2000/svg" viewBox="0 0 312.85 35.87"><defs><style>.cls-1{fill:#4395d1;}.cls-2{fill:#f5a116;}.cls-3{fill:#2b2e70;}</style></defs><g id="Capa_2" data-name="Capa 2"><g id="wireframe"><path class="cls-1" d="M0,13.77H2.83v3.15A10.06,10.06,0,0,1,5.5,14.14a5.26,5.26,0,0,1,2.93-.93,5.05,5.05,0,0,1,2.46.74L9.44,16.28A3.84,3.84,0,0,0,8,15.91a4,4,0,0,0-2.67,1.14,7.18,7.18,0,0,0-2,3.53A34.25,34.25,0,0,0,2.83,28v7.28H0Z"/><path class="cls-1" d="M23.44,13.21a10.71,10.71,0,0,1,8.26,3.61,11.21,11.21,0,0,1,3,7.78,11.2,11.2,0,0,1-3.15,7.89,10.53,10.53,0,0,1-8.08,3.38,10.57,10.57,0,0,1-8.1-3.38,11.2,11.2,0,0,1-3.15-7.89,11.2,11.2,0,0,1,3-7.76,10.65,10.65,0,0,1,8.27-3.63m0,2.72a8,8,0,0,0-5.94,2.55A8.57,8.57,0,0,0,15,24.66,8.73,8.73,0,0,0,16.14,29a8.12,8.12,0,0,0,3.06,3.12,8.75,8.75,0,0,0,8.46,0A8.15,8.15,0,0,0,30.73,29a8.83,8.83,0,0,0,1.13-4.36,8.54,8.54,0,0,0-2.49-6.18,8,8,0,0,0-5.94-2.55"/><path class="cls-1" d="M40,35.31V5.45h2.77v12a11.71,11.71,0,0,1,3.89-3.19,10.9,10.9,0,0,1,12.54,2.25,11.13,11.13,0,0,1,3.23,8,11,11,0,0,1-3.26,8,10.63,10.63,0,0,1-7.85,3.31,10.06,10.06,0,0,1-4.77-1.13,11,11,0,0,1-3.78-3.39v4ZM51.07,33.2a8.34,8.34,0,0,0,7.37-4.34,8.76,8.76,0,0,0,0-8.73,8.41,8.41,0,0,0-3.13-3.24,8.15,8.15,0,0,0-4.19-1.16,8.64,8.64,0,0,0-4.32,1.16A8,8,0,0,0,43.65,20a8.78,8.78,0,0,0-1.1,4.41A8.6,8.6,0,0,0,45,30.68a8.14,8.14,0,0,0,6.06,2.52"/><path class="cls-1" d="M77.66,13.21a10.68,10.68,0,0,1,8.25,3.61,11.17,11.17,0,0,1,3,7.78,11.2,11.2,0,0,1-3.15,7.89,11.37,11.37,0,0,1-16.18,0,11.2,11.2,0,0,1-3.15-7.89,11.16,11.16,0,0,1,3-7.76,10.65,10.65,0,0,1,8.27-3.63m0,2.72a8,8,0,0,0-5.94,2.55,8.54,8.54,0,0,0-2.49,6.18A8.73,8.73,0,0,0,70.36,29a8.05,8.05,0,0,0,3.06,3.12,8.75,8.75,0,0,0,8.46,0A8.05,8.05,0,0,0,84.94,29a8.73,8.73,0,0,0,1.14-4.36,8.55,8.55,0,0,0-2.5-6.18,8,8,0,0,0-5.93-2.55"/><path class="cls-2" d="M175.05,13.77V35.31h-2.73v-3.7a11.92,11.92,0,0,1-3.91,3.19,10.93,10.93,0,0,1-12.56-2.25,11.15,11.15,0,0,1-3.24-8.07,11,11,0,0,1,3.27-8,10.68,10.68,0,0,1,7.86-3.31,10.22,10.22,0,0,1,4.81,1.13,11.06,11.06,0,0,1,3.77,3.39v-4ZM164,15.89a8.36,8.36,0,0,0-7.38,4.33,8.7,8.7,0,0,0,0,8.7,8.48,8.48,0,0,0,3.13,3.24A8.19,8.19,0,0,0,164,33.31a8.72,8.72,0,0,0,4.32-1.14,8.07,8.07,0,0,0,3.13-3.11,8.85,8.85,0,0,0,1.1-4.41A8.59,8.59,0,0,0,170,18.4,8.2,8.2,0,0,0,164,15.89"/><path class="cls-2" d="M182.25,4.9a2.2,2.2,0,0,1,1.62.67,2.24,2.24,0,0,1,.67,1.62,2.29,2.29,0,0,1-2.29,2.28,2.18,2.18,0,0,1-1.6-.67A2.22,2.22,0,0,1,180,7.19a2.24,2.24,0,0,1,.67-1.62,2.18,2.18,0,0,1,1.6-.67m-1.38,8.87h2.77V35.31h-2.77Z"/><path class="cls-2" d="M189.41,13.77h2.77v3.86a11.58,11.58,0,0,1,3.68-3.31,9,9,0,0,1,4.4-1.11,7.67,7.67,0,0,1,4.28,1.23,7.35,7.35,0,0,1,2.77,3.31,17.59,17.59,0,0,1,.89,6.48V35.31h-2.77V25a25.67,25.67,0,0,0-.31-5,5.45,5.45,0,0,0-1.85-3.22,5.57,5.57,0,0,0-3.56-1.08,6.84,6.84,0,0,0-4.51,1.66,7.75,7.75,0,0,0-2.62,4.12,28.11,28.11,0,0,0-.4,5.86v7.9h-2.77Z"/><path class="cls-2" d="M214.12,13.77h2.77v3.72a10.91,10.91,0,0,1,3-3,8.46,8.46,0,0,1,4.42-1.27,7.35,7.35,0,0,1,3,.62,6.43,6.43,0,0,1,2.3,1.63,8.81,8.81,0,0,1,1.54,2.92,10.34,10.34,0,0,1,3.46-3.85A8.21,8.21,0,0,1,239,13.21,7,7,0,0,1,243,14.34a6.67,6.67,0,0,1,2.53,3.15,16.64,16.64,0,0,1,.84,6.06V35.31H243.5V23.55a15.37,15.37,0,0,0-.49-4.76,4.31,4.31,0,0,0-1.69-2.09,5,5,0,0,0-2.85-.79,6.15,6.15,0,0,0-3.68,1.19,6.87,6.87,0,0,0-2.44,3.16,20.2,20.2,0,0,0-.77,6.62v8.43h-2.77v-11a19.06,19.06,0,0,0-.48-5.29,4.5,4.5,0,0,0-1.69-2.24,4.94,4.94,0,0,0-2.88-.84,6.12,6.12,0,0,0-3.59,1.16,6.87,6.87,0,0,0-2.48,3.11,17,17,0,0,0-.8,6v9.12h-2.77Z"/><path class="cls-2" d="M270.32,28.17l2.33,1.22A12.74,12.74,0,0,1,270,33a10.9,10.9,0,0,1-3.39,2.11,11.91,11.91,0,0,1-4.27.72,10.27,10.27,0,0,1-8.24-3.46,11.66,11.66,0,0,1-3-7.81,11.53,11.53,0,0,1,2.51-7.3,10.29,10.29,0,0,1,8.55-4.09,10.66,10.66,0,0,1,8.8,4.18,11.64,11.64,0,0,1,2.37,7.37H254a8.74,8.74,0,0,0,2.4,6.15,7.61,7.61,0,0,0,5.73,2.4,9.23,9.23,0,0,0,3.2-.57A8.44,8.44,0,0,0,268,31.22a13,13,0,0,0,2.36-3m0-5.81a9.16,9.16,0,0,0-1.62-3.54,7.71,7.71,0,0,0-2.8-2.14,8.65,8.65,0,0,0-3.67-.81,7.93,7.93,0,0,0-5.46,2,9.29,9.29,0,0,0-2.51,4.45Z"/><path class="cls-2" d="M278.53,13.77h2.78v3.86A11.48,11.48,0,0,1,285,14.32a9,9,0,0,1,4.4-1.11,7.69,7.69,0,0,1,4.28,1.23,7.26,7.26,0,0,1,2.76,3.31,17.34,17.34,0,0,1,.9,6.48V35.31h-2.78V25a26,26,0,0,0-.3-5,5.51,5.51,0,0,0-1.85-3.22,5.58,5.58,0,0,0-3.57-1.08,6.8,6.8,0,0,0-4.5,1.66,7.83,7.83,0,0,0-2.63,4.12,29.06,29.06,0,0,0-.39,5.86v7.9h-2.78Z"/><polygon class="cls-2" points="305.68 5.77 308.45 5.77 308.45 13.77 312.85 13.77 312.85 16.16 308.45 16.16 308.45 35.31 305.68 35.31 305.68 16.16 301.9 16.16 301.9 13.77 305.68 13.77 305.68 5.77"/><path class="cls-3" d="M98.64,35.31h-.27a1.14,1.14,0,0,1-1.15-1.15V9.43a1.14,1.14,0,0,1,1.15-1.14h.27a1.15,1.15,0,0,1,1.15,1.14V34.16a1.15,1.15,0,0,1-1.15,1.15"/><path class="cls-3" d="M110.2,17.74a4.06,4.06,0,1,0,4.06,4.06,4.06,4.06,0,0,0-4.06-4.06m0,5.94a1.88,1.88,0,1,1,1.88-1.88,1.88,1.88,0,0,1-1.88,1.88"/><path class="cls-3" d="M131.38,17.74a4.06,4.06,0,1,0,4.05,4.06,4.06,4.06,0,0,0-4.05-4.06m0,5.94a1.88,1.88,0,1,1,1.88-1.88,1.89,1.89,0,0,1-1.88,1.88"/><path class="cls-3" d="M143.2,35.31h-.28a1.15,1.15,0,0,1-1.15-1.15V9.43a1.15,1.15,0,0,1,1.15-1.14h.28a1.15,1.15,0,0,1,1.15,1.14V34.16a1.15,1.15,0,0,1-1.15,1.15"/><path class="cls-3" d="M90.35,8.29h4a1.22,1.22,0,0,1,1.22,1.22V9.8A1.23,1.23,0,0,1,94.39,11h-4A1.23,1.23,0,0,1,89.13,9.8V9.51a1.22,1.22,0,0,1,1.22-1.22"/><path class="cls-3" d="M119.82,9.51V9.8A1.23,1.23,0,0,1,118.6,11H98.44A1.22,1.22,0,0,1,97.22,9.8V9.51a1.21,1.21,0,0,1,1.22-1.22H118.6a1.22,1.22,0,0,1,1.22,1.22"/><path class="cls-3" d="M121.75,9.51V9.8A1.23,1.23,0,0,0,123,11h20.16a1.23,1.23,0,0,0,1.22-1.23V9.51a1.22,1.22,0,0,0-1.22-1.22H123a1.22,1.22,0,0,0-1.23,1.22"/><path class="cls-3" d="M151.22,8.29h-4A1.22,1.22,0,0,0,146,9.51V9.8A1.23,1.23,0,0,0,147.19,11h4a1.23,1.23,0,0,0,1.23-1.23V9.51a1.22,1.22,0,0,0-1.23-1.22"/><path class="cls-3" d="M122.14,1.23v4a1.23,1.23,0,0,1-1.23,1.23h-.29a1.23,1.23,0,0,1-1.23-1.23v-4A1.23,1.23,0,0,1,120.62,0h.29a1.23,1.23,0,0,1,1.23,1.23"/><path class="cls-3" d="M120.57,35.79c-7.38,0-12.37-2.15-13.34-3.32a1.32,1.32,0,0,1,2-1.72c.5.43,4.66,2.6,12.31,2.38,6.54-.18,10.29-1.94,10.77-2.43a1.36,1.36,0,0,1,1.88,0,1.33,1.33,0,0,1,0,1.87c-1.19,1.23-5.89,3-12.61,3.23h-1.05"/></g></g></svg>