<svg viewBox="0 0 58.89 58.76" xmlns="http://www.w3.org/2000/svg"><path d="m4.71 13.48a29.24 29.24 0 0 1 21.85-13.41l2.49 5-2.75 5.46a19 19 0 0 0 -12.69 8.18l-3.21-4.9zm28.66-8.38-2.62 5.24a19.29 19.29 0 0 1 13.41 6.93l6.09-.39 3.07-4.71a29.28 29.28 0 0 0 -22.5-12.17zm19 15.58-5.78.32a19.09 19.09 0 0 1 2 8.38 19.42 19.42 0 0 1 -1.24 6.74l3.33 5 5.63.32a28.93 28.93 0 0 0 2.62-12.1 29.36 29.36 0 0 0 -3.31-13.44zm-3.89 24.32-3.2-5a19.35 19.35 0 0 1 -12.7 8.18l-2.74 5.43 2.48 5a29.51 29.51 0 0 0 21.85-13.33zm-42-6.87 5.82-.33a19 19 0 0 1 -2-8.37 19.34 19.34 0 0 1 1.24-6.74l-3.34-5-5.62-.33a28.77 28.77 0 0 0 -2.58 12.02 29.36 29.36 0 0 0 3.27 13.48zm19 15.57 2.61-5.23a19.28 19.28 0 0 1 -13.41-6.94l-6.08.4-3.04 4.66a29.35 29.35 0 0 0 22.51 12.17z" fill="#fff"/></svg>