<svg xmlns="http://www.w3.org/2000/svg" viewBox="0 0 253.38 42.28"><defs><style>.cls-1{fill:#292929;}.cls-2{fill:#4e8a32;}</style></defs><g id="Capa_2" data-name="Capa 2"><g id="wireframe"><path class="cls-1" d="M96.57,31.77l1.57.82A8.51,8.51,0,0,1,96.36,35a7,7,0,0,1-2.27,1.41,7.74,7.74,0,0,1-2.85.49,6.86,6.86,0,0,1-5.52-2.32,7.91,7.91,0,0,1-.31-10.12,6.9,6.9,0,0,1,5.72-2.73A7.09,7.09,0,0,1,97,24.56a7.79,7.79,0,0,1,1.6,4.93h-13a5.87,5.87,0,0,0,1.6,4.12,5.15,5.15,0,0,0,3.84,1.61,6.27,6.27,0,0,0,2.14-.38,5.64,5.64,0,0,0,1.77-1,8.43,8.43,0,0,0,1.58-2.05m0-3.89a6.06,6.06,0,0,0-1.08-2.37,5.08,5.08,0,0,0-1.88-1.43,5.76,5.76,0,0,0-2.45-.54,5.28,5.28,0,0,0-3.65,1.36,6.25,6.25,0,0,0-1.69,3Z"/><polygon class="cls-1" points="76.85 17.15 78.7 17.15 78.7 22.5 81.65 22.5 81.65 24.11 78.7 24.11 78.7 36.93 76.85 36.93 76.85 24.11 74.31 24.11 74.31 22.5 76.85 22.5 76.85 17.15"/><path class="cls-1" d="M101.37,22.5h1.9v2.11a6.53,6.53,0,0,1,1.79-1.86,3.54,3.54,0,0,1,2-.62,3.45,3.45,0,0,1,1.64.49l-1,1.57a2.6,2.6,0,0,0-1-.26,2.68,2.68,0,0,0-1.79.77,4.71,4.71,0,0,0-1.31,2.36,22.06,22.06,0,0,0-.35,5v4.88h-1.9Z"/><path class="cls-1" d="M122.79,22.21h1.85v11.5a13.69,13.69,0,0,1-.53,4.44,5.83,5.83,0,0,1-2.53,3.06,8.29,8.29,0,0,1-4.34,1.07,9.9,9.9,0,0,1-3.33-.52,6.65,6.65,0,0,1-2.41-1.41,8.48,8.48,0,0,1-1.71-2.59h2a5.36,5.36,0,0,0,2.12,2.13,7,7,0,0,0,3.23.68,6.67,6.67,0,0,0,3.2-.7,4.37,4.37,0,0,0,1.87-1.78,8,8,0,0,0,.56-3.46v-.74a7,7,0,0,1-2.57,2,7.35,7.35,0,0,1-3.21.72,7.5,7.5,0,0,1-3.74-1A7.07,7.07,0,0,1,110.56,33a7.33,7.33,0,0,1-1-3.67,7.42,7.42,0,0,1,1-3.74,7.6,7.6,0,0,1,6.47-3.74,6.84,6.84,0,0,1,3,.67,8.31,8.31,0,0,1,2.71,2.21Zm-5.48,1.42a5.85,5.85,0,0,0-2.93.76,5.51,5.51,0,0,0-2.12,2.11,5.81,5.81,0,0,0-.77,2.91,5.28,5.28,0,0,0,1.59,3.93,6.27,6.27,0,0,0,8.24,0,5.42,5.42,0,0,0,1.56-4,5.81,5.81,0,0,0-.72-2.91,5.21,5.21,0,0,0-2-2,5.66,5.66,0,0,0-2.82-.74"/><path class="cls-1" d="M143,22.21V36.64h-1.83V34.15a8,8,0,0,1-2.62,2.14,7.31,7.31,0,0,1-8.41-1.5A7.49,7.49,0,0,1,128,29.38a7.35,7.35,0,0,1,2.18-5.33,7.17,7.17,0,0,1,5.27-2.21,6.73,6.73,0,0,1,3.21.76,7.38,7.38,0,0,1,2.53,2.26V22.21Zm-7.42,1.42a5.57,5.57,0,0,0-4.94,2.9,5.84,5.84,0,0,0,0,5.83,5.66,5.66,0,0,0,2.1,2.16,5.46,5.46,0,0,0,2.83.78,5.78,5.78,0,0,0,2.88-.77,5.38,5.38,0,0,0,2.1-2.08,5.93,5.93,0,0,0,.74-3,5.75,5.75,0,0,0-1.65-4.19,5.46,5.46,0,0,0-4.06-1.68"/><path class="cls-1" d="M161.56,16.64v20h-1.83V34.15a8,8,0,0,1-2.62,2.14,7.29,7.29,0,0,1-8.4-1.5,7.46,7.46,0,0,1-2.17-5.41,7.32,7.32,0,0,1,2.19-5.33A7.15,7.15,0,0,1,154,21.84a6.77,6.77,0,0,1,3.22.76,7.26,7.26,0,0,1,2.52,2.26V16.64Zm-7.42,7a5.57,5.57,0,0,0-4.94,2.9,5.8,5.8,0,0,0,0,5.83,5.64,5.64,0,0,0,2.09,2.16,5.46,5.46,0,0,0,2.83.78,5.82,5.82,0,0,0,2.89-.77,5.38,5.38,0,0,0,2.1-2.08,5.92,5.92,0,0,0,.73-3,5.75,5.75,0,0,0-1.65-4.19,5.46,5.46,0,0,0-4.06-1.68"/><path class="cls-1" d="M178.2,22.21h1.86v11.5a13.69,13.69,0,0,1-.53,4.44A5.8,5.8,0,0,1,177,41.21a8.25,8.25,0,0,1-4.33,1.07,9.86,9.86,0,0,1-3.33-.52,6.65,6.65,0,0,1-2.41-1.41,8.3,8.3,0,0,1-1.71-2.59h2a5.38,5.38,0,0,0,2.13,2.13,6.94,6.94,0,0,0,3.22.68,6.68,6.68,0,0,0,3.21-.7,4.34,4.34,0,0,0,1.86-1.78,7.84,7.84,0,0,0,.56-3.46v-.74a6.92,6.92,0,0,1-2.56,2,7.54,7.54,0,0,1-6.95-.27A7.07,7.07,0,0,1,166,33a7.23,7.23,0,0,1-1-3.67,7.51,7.51,0,0,1,7.46-7.48,6.85,6.85,0,0,1,3,.67,8.39,8.39,0,0,1,2.7,2.21Zm-5.48,1.42a5.81,5.81,0,0,0-2.92.76,5.54,5.54,0,0,0-2.13,2.11,5.8,5.8,0,0,0-.76,2.91,5.28,5.28,0,0,0,1.59,3.93,6.27,6.27,0,0,0,8.24,0,5.46,5.46,0,0,0,1.55-4,5.81,5.81,0,0,0-.71-2.91,5.28,5.28,0,0,0-2-2,5.69,5.69,0,0,0-2.83-.74"/><path class="cls-1" d="M196.18,31.85l1.56.82A8.33,8.33,0,0,1,196,35.11a7.13,7.13,0,0,1-2.26,1.42,8.05,8.05,0,0,1-2.86.48,6.88,6.88,0,0,1-5.52-2.32,7.82,7.82,0,0,1-2-5.23A7.67,7.67,0,0,1,185,24.57a6.88,6.88,0,0,1,5.72-2.73,7.13,7.13,0,0,1,5.89,2.8,7.85,7.85,0,0,1,1.59,4.93h-13a5.88,5.88,0,0,0,1.61,4.12,5.11,5.11,0,0,0,3.83,1.61,6.1,6.1,0,0,0,2.15-.39,5.65,5.65,0,0,0,1.77-1,9,9,0,0,0,1.58-2m0-3.88a6.33,6.33,0,0,0-1.08-2.38,5.16,5.16,0,0,0-1.88-1.43,5.8,5.8,0,0,0-2.46-.54A5.3,5.3,0,0,0,187.11,25a6.23,6.23,0,0,0-1.68,3Z"/><polygon class="cls-1" points="203.3 16.86 205.15 16.86 205.15 22.21 208.1 22.21 208.1 23.82 205.15 23.82 205.15 36.63 203.3 36.63 203.3 23.82 200.76 23.82 200.76 22.21 203.3 22.21 203.3 16.86"/><path class="cls-1" d="M218.13,23.79,216.94,25A4.28,4.28,0,0,0,214,23.58a2.24,2.24,0,0,0-1.55.59,1.86,1.86,0,0,0-.64,1.4,2.09,2.09,0,0,0,.53,1.34,7.45,7.45,0,0,0,2.23,1.52,8.51,8.51,0,0,1,2.82,2.07,3.82,3.82,0,0,1,.73,2.27,4.06,4.06,0,0,1-1.25,3A4.23,4.23,0,0,1,213.78,37a5.33,5.33,0,0,1-2.38-.55A5.13,5.13,0,0,1,209.52,35l1.16-1.33a4.08,4.08,0,0,0,3,1.61,2.71,2.71,0,0,0,1.9-.72,2.23,2.23,0,0,0,.78-1.69,2.15,2.15,0,0,0-.51-1.41,8.42,8.42,0,0,0-2.34-1.54,7.56,7.56,0,0,1-2.66-2,3.73,3.73,0,0,1-.7-2.24,3.62,3.62,0,0,1,1.12-2.73,3.88,3.88,0,0,1,2.83-1.09,5.86,5.86,0,0,1,4,1.95"/><path class="cls-1" d="M8.62,23.71l-1.2,1.23A4.28,4.28,0,0,0,4.51,23.5,2.24,2.24,0,0,0,3,24.09a1.88,1.88,0,0,0-.64,1.4,2.07,2.07,0,0,0,.53,1.33,7.25,7.25,0,0,0,2.23,1.53A8.24,8.24,0,0,1,7.9,30.42a3.72,3.72,0,0,1,.73,2.26,4,4,0,0,1-1.25,3,4.23,4.23,0,0,1-3.12,1.24,5.36,5.36,0,0,1-2.38-.55A5.13,5.13,0,0,1,0,34.88l1.17-1.32a4,4,0,0,0,3,1.6,2.73,2.73,0,0,0,1.9-.71,2.2,2.2,0,0,0,.27-3.11A8.45,8.45,0,0,0,4,29.81a7.56,7.56,0,0,1-2.66-2,3.75,3.75,0,0,1-.7-2.24,3.62,3.62,0,0,1,1.12-2.73,3.89,3.89,0,0,1,2.84-1.09,5.9,5.9,0,0,1,4,1.95"/><path class="cls-1" d="M25.91,25.13,24.43,26a6.15,6.15,0,0,0-5.2-2.53,6.05,6.05,0,0,0-4.37,1.69,5.53,5.53,0,0,0-1.75,4.12,5.91,5.91,0,0,0,.8,3,5.64,5.64,0,0,0,2.2,2.16,6.42,6.42,0,0,0,3.13.77,6.35,6.35,0,0,0,5.19-2.53l1.48,1a7,7,0,0,1-2.78,2.42,8.91,8.91,0,0,1-4,.86,7.91,7.91,0,0,1-5.68-2.17,7.11,7.11,0,0,1-2.25-5.3,7.51,7.51,0,0,1,1.06-3.89,7.41,7.41,0,0,1,2.89-2.8,8.46,8.46,0,0,1,4.12-1,8.87,8.87,0,0,1,2.77.44,7.6,7.6,0,0,1,2.26,1.14,6.24,6.24,0,0,1,1.58,1.79"/><path class="cls-2" d="M34.34,23a5.46,5.46,0,0,1,4.21,1.84,5.9,5.9,0,0,1-.09,8,5.37,5.37,0,0,1-4.12,1.72,5.36,5.36,0,0,1-4.13-1.72,5.88,5.88,0,0,1-.09-8A5.45,5.45,0,0,1,34.34,23m0,1.39a4.09,4.09,0,0,0-3,1.3A4.37,4.37,0,0,0,30,28.79,4.54,4.54,0,0,0,30.61,31a4.21,4.21,0,0,0,1.57,1.59,4.43,4.43,0,0,0,4.31,0A4.21,4.21,0,0,0,38.06,31a4.55,4.55,0,0,0,.58-2.23,4.35,4.35,0,0,0-1.28-3.15,4.08,4.08,0,0,0-3-1.3"/><path class="cls-2" d="M66.91,23a5.45,5.45,0,0,1,4.21,1.84,5.91,5.91,0,0,1-.08,8,5.82,5.82,0,0,1-8.26,0,5.88,5.88,0,0,1-.09-8A5.45,5.45,0,0,1,66.91,23m0,1.39a4.09,4.09,0,0,0-3,1.3,4.37,4.37,0,0,0-1.26,3.15A4.44,4.44,0,0,0,63.19,31a4.11,4.11,0,0,0,1.56,1.59,4.29,4.29,0,0,0,2.16.56,4.35,4.35,0,0,0,2.16-.56A4.25,4.25,0,0,0,70.63,31a4.55,4.55,0,0,0,.58-2.23,4.35,4.35,0,0,0-1.28-3.15,4.05,4.05,0,0,0-3-1.3"/><path class="cls-2" d="M59.73,29.51H41.51v-.76a7.18,7.18,0,0,0-7.17-7.17V20.07A8.7,8.7,0,0,1,43,28H58.26a8.69,8.69,0,0,1,8-7.91L60.88,0h6V1.5H62.85l5.37,20.08H66.91a7.18,7.18,0,0,0-7.18,7.17Z"/><rect class="cls-2" x="29.77" y="36.12" width="9.3" height="1.51"/><rect class="cls-2" x="62.34" y="36.12" width="9.3" height="1.51"/><path class="cls-1" d="M222.16,34.89a1,1,0,0,1,.73.3,1.05,1.05,0,0,1,0,1.47,1,1,0,0,1-1.47,0,1,1,0,0,1,.74-1.77"/><path class="cls-1" d="M232,31l-1.51.83a2.74,2.74,0,0,0-.84-.62,2.63,2.63,0,0,0-1-.17,2.29,2.29,0,0,0-1.65.6,2.12,2.12,0,0,0-.62,1.56,2,2,0,0,0,.6,1.5,2.18,2.18,0,0,0,1.59.58,2.31,2.31,0,0,0,1.89-.83l1.43,1a4.4,4.4,0,0,1-6.26.38,3.69,3.69,0,0,1-1.08-2.64,3.72,3.72,0,0,1,2-3.31,4.56,4.56,0,0,1,4-.08A3.74,3.74,0,0,1,232,31"/><path class="cls-1" d="M237,29.38a3.94,3.94,0,0,1,1.92.51,3.74,3.74,0,0,1,1.4,1.39,3.67,3.67,0,0,1,.51,1.89,3.82,3.82,0,0,1-1.89,3.3,3.88,3.88,0,0,1-1.93.5,3.61,3.61,0,0,1-2.65-1.1,3.82,3.82,0,0,1,.14-5.5,3.62,3.62,0,0,1,2.5-1m0,1.71a1.82,1.82,0,0,0-1.4.59,2.05,2.05,0,0,0-.56,1.5,2.12,2.12,0,0,0,.55,1.52,2,2,0,0,0,2.82,0,2.33,2.33,0,0,0,0-3,1.86,1.86,0,0,0-1.42-.58"/><path class="cls-1" d="M242.33,29.57h1.81v.83a2.9,2.9,0,0,1,2.27-1,2.3,2.3,0,0,1,1.22.33,2.44,2.44,0,0,1,.88,1,2.82,2.82,0,0,1,2.42-1.3,2.53,2.53,0,0,1,1.36.36,2.06,2.06,0,0,1,.84.94,5,5,0,0,1,.25,1.87v4.23h-1.82V33.12a3,3,0,0,0-.31-1.66,1,1,0,0,0-.91-.43,1.34,1.34,0,0,0-.83.26A1.54,1.54,0,0,0,249,32a4.51,4.51,0,0,0-.18,1.5v3.25H247V33.29a4.78,4.78,0,0,0-.15-1.41,1.24,1.24,0,0,0-.42-.64,1.13,1.13,0,0,0-.69-.21,1.32,1.32,0,0,0-.82.27,1.6,1.6,0,0,0-.56.75,4.69,4.69,0,0,0-.18,1.52v3.21h-1.81Z"/></g></g></svg>