<svg xmlns="http://www.w3.org/2000/svg" viewBox="0 0 147.46 22.64"><defs><style>.cls-1{fill:#515050;}.cls-2{fill:#ccdadc;}</style></defs><g id="Capa_2" data-name="Capa 2"><g id="wireframe"><path class="cls-1" d="M22,8.35a6.84,6.84,0,0,1,5.26-2.77c2.18,0,4.08.51,5,2.76.24.05.29-.14.36-.26,1.79-2.85,6.12-3,8.45-1.71A3.75,3.75,0,0,1,43,9.77c0,3.94,0,7.87,0,11.8,0,.51-.16.68-.64.67-1.12,0-2.24,0-3.36,0-.56,0-.53-.3-.53-.68q0-4.38,0-8.76c0-.41,0-.82,0-1.23a2.26,2.26,0,0,0-1.32-2.26,2.81,2.81,0,0,0-3,.4A4.44,4.44,0,0,0,32.57,13c-.23,2.76-.09,5.52-.08,8.27,0,.75-.18,1-.94.94a23.59,23.59,0,0,0-2.79,0c-.54,0-.68-.16-.67-.69,0-2.87,0-5.74.05-8.61,0-.46,0-.92,0-1.38a2.45,2.45,0,0,0-3.88-2.06c-1.51.91-1.84,2.42-2,4a76.58,76.58,0,0,0-.4,8c0,.58-.16.74-.74.72-1.09,0-2.18,0-3.27.07-.44,0-.57-.12-.56-.55q0-7.62,0-15.24c0-.36.07-.54.49-.53,1.2,0,2.4,0,3.6,0,.43,0,.43.22.43.51,0,.6,0,1.19,0,1.78l.21.11"/><path class="cls-1" d="M.09,19.75c0-.6-.24-1.48.06-1.72s1,.3,1.6.48a9.78,9.78,0,0,0,5.3.53,2.48,2.48,0,0,0,2.09-1.72,2.51,2.51,0,0,0-.91-2.55C6.41,13,4.3,11.46,2.56,9.57A5.33,5.33,0,0,1,1.45,3.19,6,6,0,0,1,6,.21,21.25,21.25,0,0,1,13.34.5c.26,0,.4.13.4.4,0,1,0,2,0,3,0,.51-.27.33-.54.24A11.2,11.2,0,0,0,8.9,3.44a3.68,3.68,0,0,0-.82.08A2.79,2.79,0,0,0,5.76,5.35a2.44,2.44,0,0,0,1,2.52c1.33,1.21,2.71,2.37,4.05,3.56.53.48,1,1,1.54,1.47,3.21,3.21,1.69,8-2.62,9.26a16,16,0,0,1-7.22.09c-.59-.11-1.18-.26-1.77-.33S0,21.61.08,21.06a11.43,11.43,0,0,0,0-1.31"/><path class="cls-1" d="M133.62,9.5c0-.93,0-1.8,0-2.66a.4.4,0,0,1,.39-.43c3.31-.59,6.62-1.28,10-.5,2.66.61,3.66,2.18,3.44,4.89-.29,3.51-.48,7-.52,10.55,0,.77-.24.88-.92.84a57.46,57.46,0,0,0-7.53.37,10.85,10.85,0,0,1-3.81-.27,4.38,4.38,0,0,1-1.84-7.35,7.89,7.89,0,0,1,3.44-1.81c1.47-.42,3-.75,4.44-1.15a5.24,5.24,0,0,0,1.21-.47,1.66,1.66,0,0,0-.41-3.16,10.06,10.06,0,0,0-4.3.1,24.09,24.09,0,0,0-3.57,1.05M143,13.72a11.82,11.82,0,0,1-3.87,1.54,10.06,10.06,0,0,0-2,.77,2.17,2.17,0,0,0-1.28,2.41A2.13,2.13,0,0,0,138,20a27.9,27.9,0,0,0,4.08-.3c.44,0,.52-.28.54-.64.09-1.72.19-3.43.29-5.36"/><path class="cls-1" d="M47.49,9.51c0-.64,0-1.21,0-1.78,0-1.5-.26-1.2,1.2-1.46a25.81,25.81,0,0,1,8.22-.54,8.81,8.81,0,0,1,1.82.45A3.43,3.43,0,0,1,61.3,9.83c-.08,4-.5,8-.52,12,0,.37-.16.46-.49.44a64.51,64.51,0,0,0-8.34.39,10.69,10.69,0,0,1-3.33-.28,4,4,0,0,1-3.08-3.16,4.12,4.12,0,0,1,1.28-4.31A8.88,8.88,0,0,1,50.68,13c1.25-.36,2.54-.62,3.8-1a5.75,5.75,0,0,0,1.29-.5,1.65,1.65,0,0,0-.38-3.16,8.67,8.67,0,0,0-3.25-.09,21.47,21.47,0,0,0-4.65,1.23m9.36,4.23c-1.41,1-3,1.19-4.39,1.7a10,10,0,0,0-1.5.64,2,2,0,0,0,.94,4,23.18,23.18,0,0,0,4.16-.32c.27,0,.45-.09.47-.43.09-1.78.2-3.57.32-5.54"/><path class="cls-1" d="M97.28,9.54c0-.94,0-1.79,0-2.63a.42.42,0,0,1,.4-.5c3.28-.55,6.56-1.24,9.9-.51,2.6.57,3.62,1.84,3.52,4.5-.14,3.76-.51,7.51-.5,11.28,0,.44-.15.57-.57.54a60.71,60.71,0,0,0-8.09.38,10.81,10.81,0,0,1-3.58-.28,4,4,0,0,1-3-3.28,4.12,4.12,0,0,1,1.34-4.22A9.21,9.21,0,0,1,100.52,13c1.29-.36,2.6-.64,3.89-1a5.26,5.26,0,0,0,1.21-.48,1.68,1.68,0,0,0,.93-1.76,1.61,1.61,0,0,0-1.34-1.37,9.8,9.8,0,0,0-4.31.07,20.59,20.59,0,0,0-3.62,1.09m9.35,4.22a14.36,14.36,0,0,1-4.28,1.64,8.15,8.15,0,0,0-1.58.67,2.19,2.19,0,0,0-1.27,2.42A2.16,2.16,0,0,0,101.66,20a23.07,23.07,0,0,0,4.15-.31c.36,0,.52-.16.54-.55.07-1.74.18-3.48.28-5.41"/><path class="cls-2" d="M87.18,13.21c0,2.73,0,5.46,0,8.19,0,.74-.25,1-1,.9a6.46,6.46,0,0,0-2.36,0c-.57.11-.52-.32-.52-.68V16.44c0-3.82,0-7.65,0-11.47,0-.7-.2-.88-.87-.86-1.72,0-3.45,0-5.17,0-.7,0-.9-.22-.86-.89a16.81,16.81,0,0,0,0-2.13c0-.6.14-.82.77-.8,2.81.1,5.62,0,8.43.09,2.53,0,5.08,0,7.61-.08.28,0,.55,0,.82,0,.46,0,.64.15.62.61,0,.82,0,1.65,0,2.46,0,.6-.21.74-.77.74-2,0-4,0-6,0-.64,0-.84.16-.83.82,0,2.76,0,5.52,0,8.28"/><path class="cls-1" d="M69.62,7.82A5.86,5.86,0,0,1,73,5.67l.16,0c2-.35,2.3-.12,2.3,1.87,0,.6.22,1.37-.06,1.76s-1.08,0-1.66,0a4.14,4.14,0,0,0-4.15,3.67,26.68,26.68,0,0,0-.33,5c0,1.26,0,2.51,0,3.77,0,.46-.12.62-.59.61-.93,0-1.86,0-2.79,0-.4,0-.58-.07-.58-.53q0-7.62,0-15.23c0-.44.14-.56.56-.55,1,0,2.08,0,3.12,0,.54,0,.65.19.61.67s0,.81,0,1.22"/><path class="cls-1" d="M115.44,11.24c0-3.36,0-6.72,0-10.08,0-.61.16-.82.78-.77a11.78,11.78,0,0,0,2,0c.7-.06.93.13.92.88,0,3.47,0,6.94,0,10.41,0,3.28,0,6.55,0,9.83,0,.61-.16.82-.78.77a16.81,16.81,0,0,0-2.13,0c-.61,0-.78-.18-.77-.79,0-3.41,0-6.83,0-10.24Z"/><path class="cls-1" d="M130.33,6c-1.79,2.07-3.45,4-5.1,5.9-1.12,1.29-1.13,1.3-.16,2.66,1.64,2.32,3.3,4.62,5,6.93.16.21.3.43.53.76h-4.69c-.31,0-.39-.25-.51-.45-1.62-2.73-3.49-5.28-5.3-7.88a.93.93,0,0,1,0-1.38c1.71-2,3.37-4,4.92-6.14a.81.81,0,0,1,.73-.41c1.46,0,2.94,0,4.62,0"/></g></g></svg>