<svg viewBox="0 0 95.21 99.89" xmlns="http://www.w3.org/2000/svg"><g fill="#fff"><path d="m84.43 93.3v-6.56h-8.43-53.36-8.51v5.06h35.14a1.5 1.5 0 1 1 0 3h-35a6.58 6.58 0 0 0 6.39 5.07h57.21a6.58 6.58 0 0 0 6.56-6.57z"/><path d="m53.17 37.41 3 4.67.24-5.53a1.49 1.49 0 0 1 .68-1.2l4.7-3-5.54-.23a1.5 1.5 0 0 1 -1.2-.69l-3-4.67-.23 5.53a1.5 1.5 0 0 1 -.69 1.2l-4.67 3 5.53.23a1.54 1.54 0 0 1 1.18.69z"/><path d="m7.8 22h.09.11.08.09s0 0 .08 0 .07 0 .09 0 0 0 .09 0a.1.1 0 0 0 .08 0s0 0 .06.05l.07.06.06.07.07.06.06.06s0 0 0 .07a.31.31 0 0 1 .07.09l4.2 6.74.34-7.74a1.5 1.5 0 0 1 .69-1.2l6.52-4.16-6.78-.3h-.94a1.47 1.47 0 0 1 -1.2-.69l-4.18-6.53-.35 7.71a1.51 1.51 0 0 1 -.68 1.21l-6.52 4.15 7.72.35s.04 0 .08 0z"/><path d="m26.91 14.45a1.48 1.48 0 0 1 -.65 1.65l-9.86 6.3-.52 11.71a1.48 1.48 0 0 1 -1.11 1.39 1.6 1.6 0 0 1 -.21 0h-.3-.15a.07.07 0 0 1 -.07 0l-.17-.06c-.07 0-.13-.07-.19-.09h-.07a1.48 1.48 0 0 0 -.13-.08s0 0-.06 0l-.11-.11c0-.06-.09-.1-.13-.17l-5.44-8.6a46.06 46.06 0 0 0 15.31 57.37h52.44a46 46 0 1 0 -58.19-70.76l8.21.37a1.49 1.49 0 0 1 1.4 1.08zm22.36-9.54a41.11 41.11 0 0 1 41.03 41.09 1.5 1.5 0 0 1 -3 0 38.11 38.11 0 0 0 -38-38.08 1.5 1.5 0 0 1 0-3zm-8.45 31.6 8-5.12.41-9.52a1.47 1.47 0 0 1 1.11-1.39 1.46 1.46 0 0 1 1.65.64l5.12 8 9.5.41a1.5 1.5 0 0 1 .75 2.76l-8 5.12-.36 9.59a1.48 1.48 0 0 1 -1.12 1.4 1.23 1.23 0 0 1 -.38 0 1.51 1.51 0 0 1 -1.27-.69l-5.12-8-9.5-.41a1.51 1.51 0 0 1 -.75-2.79z"/></g></svg>