<svg viewBox="0 0 135.6 89.19" xmlns="http://www.w3.org/2000/svg"><g fill="#1e6ca7"><path d="m118.7 56.58h-43.36a12 12 0 0 0 -12 12v8.61a12 12 0 0 0 12 12h12a3.47 3.47 0 0 0 2.5-.93 11.12 11.12 0 0 0 1.8-2.42 15.29 15.29 0 0 1 2-2.85 5.11 5.11 0 0 1 2.61-1.17h1.65a5.17 5.17 0 0 1 2.56 1.18 16.51 16.51 0 0 1 2 2.85 10.65 10.65 0 0 0 1.8 2.43 3.45 3.45 0 0 0 2.5.93h12a12 12 0 0 0 12-12v-8.63a12 12 0 0 0 -12-12m-18.32 4.82h-6.84a1.07 1.07 0 0 1 -.11-2.14h7a1.07 1.07 0 1 1 0 2.14"/><path d="m61.68 65-2 .85a5.26 5.26 0 0 0 -1.08.57c-.2.16-.21.16-.21.38v12.2c0 .22 0 .22.21.38a4.8 4.8 0 0 0 1.08.57l2 .85a14.33 14.33 0 0 1 -.48-3.6v-8.6a14.35 14.35 0 0 1 .48-3.6"/><path d="m135.39 66.4a6.17 6.17 0 0 0 -1.08-.57l-2-.85a13.91 13.91 0 0 1 .49 3.61v8.6a13.9 13.9 0 0 1 -.49 3.6l2-.86a4.68 4.68 0 0 0 1.08-.56c.2-.16.21-.16.21-.38v-12.21c0-.22 0-.22-.21-.38"/><path d="m118.7 54.44a14.11 14.11 0 0 1 10 4.11 11.94 11.94 0 0 0 -11.7-9.24h-39.95a12 12 0 0 0 -11.68 9.24 14.11 14.11 0 0 1 10-4.11z"/><path d="m41.26 15.5a3.16 3.16 0 0 0 -4.46 0s0 0 0 0l-1.4 1.39 5.54 5.64 1.44-1.46a3.16 3.16 0 0 0 0-4.42z"/><path d="m18.64 33.96-2.13 7.82 7.65-2.16 16.04-16.33-5.54-5.64z"/></g><path d="m59.85 59.85-21.39-5.73a28 28 0 0 1 -30.25-6.22 28.07 28.07 0 1 1 45.91-9.44zm-21.52-7.85 18.67 5-5-18.7.13-.32a26.07 26.07 0 1 0 -14.13 14.17z" fill="#0a72b8"/></svg>