<svg viewBox="0 0 135.6 91.08" xmlns="http://www.w3.org/2000/svg"><g fill="#1e6ca7"><path d="m118.7 58.46h-43.36a12 12 0 0 0 -12 12v8.6a12 12 0 0 0 12 12h12a3.43 3.43 0 0 0 2.5-.94 10.65 10.65 0 0 0 1.8-2.42 15.56 15.56 0 0 1 2-2.84 5.11 5.11 0 0 1 2.61-1.17h1.65a5.18 5.18 0 0 1 2.62 1.17 16.51 16.51 0 0 1 2 2.85 10.36 10.36 0 0 0 1.8 2.42 3.42 3.42 0 0 0 2.5.94h12a12 12 0 0 0 12-12v-8.6a12 12 0 0 0 -12-12m-18.26 4.82h-6.96a1.07 1.07 0 0 1 -.11-2.13h7a1.07 1.07 0 1 1 0 2.13"/><path d="m61.68 66.87-2 .85a5.34 5.34 0 0 0 -1.08.56c-.2.17-.21.17-.21.39v12.21c0 .22 0 .22.21.37a4.42 4.42 0 0 0 1.08.57l2 .86a14.33 14.33 0 0 1 -.48-3.6v-8.61a14.27 14.27 0 0 1 .48-3.6"/><path d="m135.39 68.29a5 5 0 0 0 -1.08-.57l-2-.85a13.78 13.78 0 0 1 .49 3.6v8.6a13.78 13.78 0 0 1 -.49 3.6l2-.85a5 5 0 0 0 1.08-.57c.2-.16.21-.16.21-.38v-12.21c0-.21 0-.21-.21-.37"/><path d="m118.7 56.33a14.07 14.07 0 0 1 10 4.11 11.94 11.94 0 0 0 -11.7-9.25h-39.95a12 12 0 0 0 -11.68 9.25 14.07 14.07 0 0 1 10-4.11z"/><path d="m32.54 26.6a3.92 3.92 0 0 1 0 3.41 6.35 6.35 0 0 0 1.05-.89l.79-.82-.79-.82a6.28 6.28 0 0 0 -1.05-.88"/><path d="m29.35 25.53h-.46a2.78 2.78 0 0 0 0 5.55h.15.3a2.79 2.79 0 0 0 0-5.54z"/><path d="m24.49 27.43-.85.87.85.88a6.55 6.55 0 0 0 1.17.93 4 4 0 0 1 0-3.62 6.61 6.61 0 0 0 -1.17.94"/><path d="m13.34 39.3c.09.25 1.4 1.1 6.16 1.7v-16.76a19.62 19.62 0 0 1 -6.16-1.46z"/><path d="m44.66 21.39c-.25-.78-5.7-2.22-15.66-2.22s-15.38 1.44-15.66 2.25c.11.25 1.55 1.15 6.78 1.76a.55.55 0 0 1 .49.55v12.62a81.11 81.11 0 0 1 8.39-.35c2.75 0 5.44.12 7.83.35v-12.55a.55.55 0 0 1 .51-.55c5.69-.6 7.23-1.56 7.32-1.86m-9.1 7.3-1.16 1.21a7.43 7.43 0 0 1 -4.79 2.28 4.73 4.73 0 0 1 -.54 0h-.47a7.38 7.38 0 0 1 -4.9-2.18l-1.25-1.3a.57.57 0 0 1 0-.79l1.25-1.27a7.41 7.41 0 0 1 4.9-2.22h.47a4.9 4.9 0 0 1 .54 0 7.43 7.43 0 0 1 4.79 2.28l1.16 1.21a.55.55 0 0 1 0 .77"/><path d="m38 24.3v16.77c5.19-.59 6.62-1.5 6.71-1.78v-16.53a20.54 20.54 0 0 1 -6.71 1.54"/></g><path d="m59.85 59.85-21.39-5.73a28 28 0 0 1 -30.25-6.22 28.07 28.07 0 1 1 45.91-9.44zm-21.52-7.85 18.67 5-5-18.67.13-.32a26.07 26.07 0 1 0 -14.13 14.14z" fill="#0a72b8"/></svg>