<svg viewBox="0 0 135.6 90.75" xmlns="http://www.w3.org/2000/svg"><g fill="#1e6ca7"><path d="m118.7 58.13h-43.36a12 12 0 0 0 -12 12v8.6a12 12 0 0 0 12 12h12a3.48 3.48 0 0 0 2.5-.94 11.12 11.12 0 0 0 1.8-2.42 15.29 15.29 0 0 1 2-2.85 5.19 5.19 0 0 1 2.61-1.17h1.65a5.1 5.1 0 0 1 2.62 1.17 15.78 15.78 0 0 1 2 2.85 10.81 10.81 0 0 0 1.8 2.42 3.41 3.41 0 0 0 2.5.93h12a12 12 0 0 0 12-12v-8.6a12 12 0 0 0 -12-12m-18.38 4.88h-6.84a1.07 1.07 0 0 1 -.11-2.13h7a1.07 1.07 0 1 1 0 2.13"/><path d="m61.68 66.53-2 .85a5.26 5.26 0 0 0 -1.08.57c-.2.16-.21.16-.21.38v12.21c0 .22 0 .22.21.38a4.8 4.8 0 0 0 1.08.57l2 .85a14.27 14.27 0 0 1 -.48-3.6v-8.6a14.35 14.35 0 0 1 .48-3.61"/><path d="m135.39 68a5.46 5.46 0 0 0 -1.08-.58l-2-.84a13.78 13.78 0 0 1 .49 3.6v8.6a13.84 13.84 0 0 1 -.49 3.6l2-.85a5 5 0 0 0 1.08-.57c.2-.16.21-.16.21-.38v-12.25c0-.21 0-.22-.21-.37"/><path d="m118.7 56a14.11 14.11 0 0 1 10 4.1 11.94 11.94 0 0 0 -11.7-9.24h-39.95a12 12 0 0 0 -11.68 9.24 14.11 14.11 0 0 1 10-4.1z"/><path d="m28.44 28a7.3 7.3 0 1 0 -7.29-7.3 7.3 7.3 0 0 0 7.29 7.3"/><path d="m41 33.83a9.87 9.87 0 0 0 -.73-1.36 9.17 9.17 0 0 0 -6.27-4 1.34 1.34 0 0 0 -.92.23 7.71 7.71 0 0 1 -9.11 0 1.38 1.38 0 0 0 -.93-.23 9 9 0 0 0 -6.27 4 8.05 8.05 0 0 0 -.77 1.36.62.62 0 0 0 0 .59c.26.43.56.89.86 1.29a12 12 0 0 0 1.45 1.65 13.88 13.88 0 0 0 1.49 1.25 14.46 14.46 0 0 0 17.29 0c.53-.4 1-.83 1.48-1.25a12.05 12.05 0 0 0 1.46-1.65 13.71 13.71 0 0 0 .85-1.29.76.76 0 0 0 0-.59"/></g><path d="m59.85 59.87-21.39-5.74a28 28 0 0 1 -30.25-6.21 28.07 28.07 0 1 1 45.91-9.45zm-21.52-7.87 18.67 5-5-18.7.13-.31a26.07 26.07 0 1 0 -14.13 14.17z" fill="#0a72b8"/></svg>